<?xml version="1.0" encoding="utf-8"?>
<!-- Generator: Adobe Illustrator 20.1.0, SVG Export Plug-In . SVG Version: 6.00 Build 0)  -->
<svg version="1.1" id="Слой_1" xmlns="http://www.w3.org/2000/svg" xmlns:xlink="http://www.w3.org/1999/xlink" x="0px" y="0px"
	 width="32px" height="32px" viewBox="0 0 32 32" style="enable-background:new 0 0 32 32;" xml:space="preserve">
<style type="text/css">
	.st0{fill:#231F20;}
</style>
<g id="Слой_1_2_">
	<g id="Слой_1_1_">
		<rect y="28" class="st0" width="32" height="1"/>
	</g>
</g>
<g id="Слой_2">
	<g>
		<path class="st0" d="M32,9c-2.4-1.4-5.5-1.5-8.1,0l-4.1,2.3c-5.1,0.4-11.3,0.9-13.1,1.1c-4.2,0.3-6.6,2-6.6,2l7.1,1.9
			c0,0,2.5,0.5-5.1-2c2.2-1,4.9-0.9,4.9-0.9h17.2l3.6-2.1L32,9z"/>
		<path class="st0" d="M15.8,18.2L11.3,17l-3.1,1.8l0,0c0,0-2.3,0.1-4.6-0.1c-1.5-0.1-3.5,0.9-3.5,0.9l3.3,1.6c2.2,1.3,5,1.4,7.4,0
			l3.9-2.2C15,18.7,15.4,18.5,15.8,18.2L15.8,18.2L15.8,18.2L15.8,18.2C15.9,18.2,15.8,18.2,15.8,18.2z"/>
	</g>
</g>
</svg>
