<?xml version="1.0" encoding="utf-8"?>
<!-- Generator: Adobe Illustrator 20.1.0, SVG Export Plug-In . SVG Version: 6.00 Build 0)  -->
<svg version="1.1" id="Слой_1" xmlns="http://www.w3.org/2000/svg" xmlns:xlink="http://www.w3.org/1999/xlink" x="0px" y="0px"
	 width="32px" height="32px" viewBox="0 0 32 32" style="enable-background:new 0 0 32 32;" xml:space="preserve">
<style type="text/css">
	.st0{fill:#CECECE;}
</style>
<polygon class="st0" points="0,26 32,26 32,24 "/>
<rect y="28" class="st0" width="32" height="1"/>
<rect x="15.5" y="6.5" class="st0" width="1" height="3"/>
<rect x="15.5" y="3.5" transform="matrix(-1.836970e-16 1 -1 -1.836970e-16 22.5 -9.5)" class="st0" width="1" height="6"/>
<g>
	<path class="st0" d="M16,8C7.2,8,0,15.2,0,24h0c0.3-7.8,6.6-14,14.5-14c8,0,14.5,6.5,14.5,14.5l0,0l3-0.5C32,15.2,24.8,8,16,8z"/>
</g>
</svg>
