<?xml version="1.0" encoding="utf-8"?>
<!-- Generator: Adobe Illustrator 20.1.0, SVG Export Plug-In . SVG Version: 6.00 Build 0)  -->
<svg version="1.1" id="Слой_1" xmlns="http://www.w3.org/2000/svg" xmlns:xlink="http://www.w3.org/1999/xlink" x="0px" y="0px"
	 width="32px" height="32px" viewBox="0 0 32 32" style="enable-background:new 0 0 32 32;" xml:space="preserve">
<g id="Слой_2">
	<path d="M23,3.5c-2.8,0-5.4,1.3-7,3.4c-1.6-2-4.2-3.4-7-3.4c-5,0-9,4-9,9c0-3.9,3.1-7,7-7s7,3.1,7,7c0-0.3,0-0.6,0.1-0.8
		c0.4-3.5,3.4-6.2,6.9-6.2c3.9,0,7,3.1,7,7c0,1.8-0.7,3.5-1.9,4.8l0,0L16,26.4L2.9,19.2L16,29l12.7-9.5c2-1.7,3.3-4.2,3.3-7
		C32,7.5,28,3.5,23,3.5z"/>
</g>
</svg>
