<?xml version="1.0" encoding="utf-8"?>
<!-- Generator: Adobe Illustrator 20.1.0, SVG Export Plug-In . SVG Version: 6.00 Build 0)  -->
<svg version="1.1" id="Слой_1" xmlns="http://www.w3.org/2000/svg" xmlns:xlink="http://www.w3.org/1999/xlink" x="0px" y="0px"
	 width="32px" height="32px" viewBox="0 0 32 32" style="enable-background:new 0 0 32 32;" xml:space="preserve">
<style type="text/css">
	.st0{fill:#231F20;}
</style>
<g>
	<path class="st0" d="M28.8,21v1c-0.1,0.1-0.8,1.2-0.8,1.2c1.4,0,1.7-0.8,1.8-0.9V20H22L28.8,21z"/>
	<path class="st0" d="M1.7,12.2C-0.1,13.5,0,14.8,0,14.9L0.6,27h6.2v-2h18.4v2h6.2L32,14.9c0-0.1,0.1-1.4-1.7-2.7l-1.5-1.1
		c-0.1-0.1-0.2-0.4-0.4-0.7c2.1,0,3.5-0.3,2.5-0.8c-1.1-0.6-2.5-1-2.7-0.9c-0.1,0-0.2,0.5-0.3,0.9c-0.8-1.3-2-3.1-2.6-3.7
		C24.3,5.1,21.7,5,16,5c-5.7,0-8.3,0-9.3,0.9C6.1,6.5,4.9,8.3,4,9.7c-0.1-0.4-0.2-0.9-0.3-1C3.5,8.5,2,9,1,9.5
		c-0.9,0.5,0.5,0.8,2.6,0.9c-0.2,0.3-0.3,0.5-0.4,0.7L1.7,12.2z M29.7,13c0.2,0.2,0.4,0.3,0.5,0.5c0,0,0,0,0,0
		c-0.3,0.5-4.2,1.1-5.7,1.6s-2.1,1.8-2.1,1.8s3.5-0.1,5.9-0.1c2,0,2.2-2.7,2-3.2c0.7,0.7,0.7,1.3,0.7,1.3L30.5,24h-4.3h-0.3H6H5.8
		H1.5L1,14.9c0,0,0-0.9,1.3-1.9l1.6-1.2L4,11.7c0.1-0.1,0.2-0.3,0.2-0.4c0.7,0.3,5.8,2.3,12.1,2.3c5.8,0,9.9-1.7,10.9-2.2
		c0.4,0.2,0.6,0.4,0.6,0.4s-0.2-0.4-0.4-0.9c0.2,0.3,0.4,0.6,0.5,0.9L29.7,13z M7.3,6.7c0.3-0.2,0.8-0.4,1.5-0.5
		c9.5,0,16.3,3.8,18.4,5.1c-1.2,0.2-5.5,0.9-10.8,0.9c-5.9,0-11.4-0.9-12.1-1C5.1,9.8,6.7,7.2,7.3,6.7z"/>
	<path class="st0" d="M3.7,16.9c2.4,0,5.8,0,5.8,0s-0.6-1.3-2.1-1.8S2,14,1.8,13.6C1.6,13.2,1.3,16.9,3.7,16.9z"/>
	<path class="st0" d="M2.1,22.1v0.2c0.1,0.1,0.4,0.9,1.8,0.9c0,0-0.7-1.1-0.8-1.2v-1l6.9-1H2.1V22.1z"/>
	<rect y="28" class="st0" width="32" height="1"/>
</g>
</svg>
