<?xml version="1.0" encoding="utf-8"?>
<!-- Generator: Adobe Illustrator 20.1.0, SVG Export Plug-In . SVG Version: 6.00 Build 0)  -->
<svg version="1.1" id="logo" xmlns="http://www.w3.org/2000/svg" xmlns:xlink="http://www.w3.org/1999/xlink" x="0px" y="0px"
	 width="45.5999985px" height="20.5px" viewBox="0 0 45.5999985 20.5" style="enable-background:new 0 0 45.5999985 20.5;"
	 xml:space="preserve">
<style type="text/css">
	.st0{fill:#212121;}
</style>
<polygon class="st0" points="26.2000008,20.5 26.2000008,14.8000002 13.3999996,14.8000002 26.2000008,0.3 17.7000008,0.3 0,20.5 
	13.1999998,20.5 16.2999992,20.5 "/>
<path class="st0" d="M41,14.8999996l2.7000008-3.1999998C44.9000015,10.3000002,45.5,8.8999996,45.5,7.0999999
	c0-2.2000003-1-3.7-1.9000015-4.5999999C42.2000008,1,39.7999992,0,36.7999992,0c-2.7999992,0-5.5,1-7.1000004,2.7
	c-1.1000004,1.2-1.7999992,3.1000001-1.8999996,5.1999998h7.0999985c0.0999985-0.5,0.2000008-1,0.4000015-1.3000002
	C35.5,6.4000001,35.9000015,6,36.5999985,6c0.5,0,0.9000015,0.0999999,1.2000008,0.4000001s0.5,0.6999998,0.5,1.0999999
	c0,1.1000004-0.5999985,2-1.2000008,2.8000002l-8.5,10.1999998h17v-5.6999998L41,14.8999996L41,14.8999996z"/>
</svg>
