<?xml version="1.0" encoding="utf-8"?>
<!-- Generator: Adobe Illustrator 20.1.0, SVG Export Plug-In . SVG Version: 6.00 Build 0)  -->
<svg version="1.1" id="Слой_1" xmlns="http://www.w3.org/2000/svg" xmlns:xlink="http://www.w3.org/1999/xlink" x="0px" y="0px"
	 width="32px" height="32px" viewBox="0 0 32 32" style="enable-background:new 0 0 32 32;" xml:space="preserve">
<style type="text/css">
	.st0{fill:#CECECE;}
</style>
<g id="Слой_1_1_">
	<path class="st0" d="M28,14.5v-5v-1h-1H16.5h-1H5H4v1v5c-2.2,0-4,1.8-4,4v8v1v2h1v-2h30v2h1v-2v-1v-8C32,16.3,30.2,14.5,28,14.5z
		 M27,9.5v5H16.5v-5H27z M5,9.5h10.5v5H5V9.5z M1,26.5v-8c0-1.7,1.3-3,3-3s24,3,24,3c1.7,0.3,3,1.3,3,3v5H1z"/>
</g>
</svg>
