<?xml version="1.0" encoding="utf-8"?>
<!-- Generator: Adobe Illustrator 20.1.0, SVG Export Plug-In . SVG Version: 6.00 Build 0)  -->
<svg version="1.1" id="Слой_1" xmlns="http://www.w3.org/2000/svg" xmlns:xlink="http://www.w3.org/1999/xlink" x="0px" y="0px"
	 width="356.9038086px" height="212.7020569px" viewBox="0 0 356.9038086 212.7020569"
	 style="enable-background:new 0 0 356.9038086 212.7020569;" xml:space="preserve">
<style type="text/css">
	.st0{fill:none;}
	.st1{fill:#FFFFFF;}
</style>
<g>
	<polygon class="st0" points="151.8190918,212.7020569 356.9038086,212.7020569 205.0847015,0 0,0 	"/>
</g>
<g>
	<path class="st1" d="M327.5673218,172.5884857L206.1096649,0.6677655h-70.2988281L94.3710175,39.3450737
		c1.4700928,2.6437988,2.9876709,5.1937561,4.5357666,7.7835999l38.1429443-20.2747059l-32.4777832,29.3027134
		c8.0311279,12.3701134,16.9482422,24.0673103,26.699707,34.9758797l60.3547363-57.8986588l-48.2419434,70.6012726
		c17.4459229,17.239502,37.0917969,32.1481628,58.4945068,44.2782898l41.8081055-65.6817703l-28.0164795,72.9901047
		c2.3961182,1.1835938,4.8118896,2.3320312,7.2463379,3.4468994l23.3939209-57.4978638l-12.3503418,62.2541199
		c16.0734863,6.5202637,32.9011383,11.5712738,50.3454742,14.9748383l5.5910645-37.9043121l12.845459,40.8325195
		c8.4616699,1.0620117,17.0500488,1.7981873,25.7475586,2.0823669L327.5673218,172.5884857z"/>
	<path class="st1" d="M76.3884735,0.6677655c3.7352295,10,7.9771729,19.5256348,12.7020264,28.854248l45.5473633-28.854248
		H76.3884735z"/>
</g>
</svg>
