<?xml version="1.0" encoding="utf-8"?>
<!-- Generator: Adobe Illustrator 20.1.0, SVG Export Plug-In . SVG Version: 6.00 Build 0)  -->
<svg version="1.1" id="Слой_1" xmlns="http://www.w3.org/2000/svg" xmlns:xlink="http://www.w3.org/1999/xlink" x="0px" y="0px"
	 width="356.9038086px" height="212.7020569px" viewBox="0 0 356.9038086 212.7020569"
	 style="enable-background:new 0 0 356.9038086 212.7020569;" xml:space="preserve">
<style type="text/css">
	.st0{fill:none;}
	.st1{fill:#FFFFFF;}
</style>
<g>
	<polygon class="st0" points="151.8190918,212.7020569 356.9038086,212.7020569 205.0847015,0 0,0 	"/>
	<g>
		<g>
			<path class="st1" d="M132.0262604,66.8241348c0.0203857,0.4497681,0.039917,0.9037476,0.0587769,1.3605347
				C132.0661774,67.7278214,132.0466461,67.2739639,132.0262604,66.8241348z"/>
			<path class="st1" d="M131.9331818,64.8953018c0.0220337,0.4317017,0.0435181,0.8668823,0.06427,1.3061523
				C131.9766998,65.7620621,131.9552765,65.3271255,131.9331818,64.8953018z"/>
			<path class="st1" d="M131.8110504,62.6357155c0.0328979,0.5715942,0.0647583,1.1525269,0.0956421,1.7397499
				C131.8758087,63.7879372,131.8440094,63.2074928,131.8110504,62.6357155z"/>
			<path class="st1" d="M131.4585724,57.2295265c0.0350342,0.4814453,0.0697021,0.9737549,0.1039429,1.4729614
				C131.5282135,58.2031593,131.4936066,57.7110329,131.4585724,57.2295265z"/>
			<path class="st1" d="M131.7080231,60.9251442c0.0288086,0.4616699,0.0570679,0.9296875,0.0847778,1.4031982
				C131.7650909,61.8547707,131.7368317,61.3868752,131.7080231,60.9251442z"/>
			<path class="st1" d="M131.5968781,59.2126808c0.0258179,0.3835449,0.0512695,0.7717896,0.076416,1.164856
				C131.6481476,59.9844093,131.6226959,59.5963478,131.5968781,59.2126808z"/>
			<path class="st1" d="M132.2960358,75.1675186c0.0122681,0.6591797,0.0230713,1.321106,0.0308228,1.9874268
				C132.3191071,76.4886246,132.3083038,75.8267593,132.2960358,75.1675186z"/>
			<path class="st1" d="M132.1064606,68.6998672c0.0247192,0.6220703,0.0479126,1.2496338,0.0693359,1.8831787
				C132.1543732,69.94944,132.1311798,69.3219986,132.1064606,68.6998672z"/>
			<path class="st1" d="M132.3268585,77.1549454c0.0135498,1.1644897,0.0409546,2.3082886,0.0806885,3.4326172
				C132.3677521,79.4632339,132.3404083,78.3194351,132.3268585,77.1549454z"/>
			<path class="st1" d="M132.2509918,73.1457291c0.0118408,0.4658203,0.022644,0.9342041,0.0324097,1.404541
				C132.2736359,74.0798721,132.2628937,73.6116714,132.2509918,73.1457291z"/>
			<path class="st1" d="M132.1876984,70.9600601c0.0169067,0.519104,0.0327148,1.0413818,0.0471802,1.5671997
				C132.2204132,72.001442,132.2046051,71.4792252,132.1876984,70.9600601z"/>
			<path class="st1" d="M133.8256989,96.1326675c-0.1171875-0.7940674-0.2262573-1.6057129-0.3325806-2.4228516
				C133.5993805,94.5271378,133.7085724,95.338295,133.8256989,96.1326675z"/>
			<path class="st1" d="M132.7901764,87.1160049c-0.0615234-0.7495728-0.1112671-1.5192261-0.1616821-2.2877197
				C132.6789093,85.5968399,132.728714,86.3663101,132.7901764,87.1160049z"/>
			<path class="st1" d="M132.5641632,83.9096451c-0.0455322-0.772644-0.078064-1.5664062-0.1115112-2.3585815
				C132.4860992,82.3432388,132.518692,83.136879,132.5641632,83.9096451z"/>
			<path class="st1" d="M133.0799103,90.2204971c-0.0770264-0.736084-0.1434937-1.491272-0.2102051-2.2460938
				C132.9363556,88.7292862,133.0029449,89.4842911,133.0799103,90.2204971z"/>
			<path class="st1" d="M131.3376007,55.6174049c0.038208,0.494873,0.0762939,0.99823,0.1140137,1.5150757
				C131.4138947,56.6153908,131.3758698,56.1125221,131.3376007,55.6174049z"/>
			<path class="st1" d="M133.8639069,96.3770523c3.6164551,24.2333984,11.9560547,37.9427414,6.9086914,53.7104416
				c-11.904541-1.3295898-27.2625046-5.142334-34.0975266-15.7053223
				c-11.9561768-18.4782639-13.2605591-54.129509-2.6085815-71.3031616
				c10.2165527-16.4714355,25.422966-14.7460327,26.6500168-14.5774536
				c-0.3222656-3.2935791-0.5636597-5.2335815-0.5636597-5.2335815
				c-29.6188278-0.8406372-41.5208054,4.2863159-45.4337692,21.9397621
				c-1.5913696,7.1796265-6.7423096,21.1118164-10.6712646,36.6079102l47.7203369,67.7050705
				c9.3032761-4.4686279,16.4572067-11.9005127,18.8193893-18.8345947
				C146.0459137,134.6631775,137.5293732,120.9184341,133.8639069,96.3770523z"/>
			<path class="st1" d="M133.4269562,93.2232437c-0.0964355-0.7619629-0.1834717-1.5422974-0.2692871-2.3248901
				C133.2434235,91.6810684,133.3305817,92.4611588,133.4269562,93.2232437z"/>
			<path class="st1" d="M130.7318268,48.6593361c0.0278931,0.2867432,0.0563354,0.5831299,0.0853271,0.8894653
				C130.7881622,49.2423439,130.7597809,48.9461403,130.7318268,48.6593361z"/>
			<path class="st1" d="M131.0897369,52.57407c0.0316772,0.3699341,0.0635986,0.7491455,0.0955811,1.1366577
				C131.1533356,53.3230324,131.1214752,52.9443092,131.0897369,52.57407z"/>
			<path class="st1" d="M131.220047,54.1357765c0.0283203,0.3482666,0.0566406,0.7039185,0.0849609,1.0650635
				C131.2766876,54.8393898,131.2483673,54.4842873,131.220047,54.1357765z"/>
			<path class="st1" d="M130.9583893,51.0776711c0.0372925,0.4137573,0.0750122,0.840332,0.1130371,1.2808228
				C131.0334015,51.917942,130.9956818,51.4914894,130.9583893,51.0776711z"/>
			<path class="st1" d="M130.8443146,49.8373146c0.0289307,0.3082886,0.0583496,0.6278076,0.0880127,0.9542236
				C130.9026031,50.4643898,130.8732452,50.1462135,130.8443146,49.8373146z"/>
		</g>
		<path class="st1" d="M195.3330688,90.0488281c0,0-25.8065643,5.2878113-62.0657806,3.1266632
			c0,0-4.1622162-3.7670212-5.4428177-13.4096222c-1.2807159-9.642601,7.6039658-20.1486244,9.2848587-20.5386276
			c1.6808777-0.3900032,39.2887573,9.6051483,39.6950073,8.3295135
			C177.2105865,66.2812347,195.3330688,90.0488281,195.3330688,90.0488281z"/>
		<path class="st1" d="M130.0655975,43.2664642c0,0,43.8633118-1.9210739,60.1918945,12.4866486
			c16.3286743,14.407608,10.565567,36.1791153,10.565567,36.1791153s-44.1833649-16.3285751-72.9985886-12.1664658
			C127.8244705,79.7657623,123.3420792,58.954792,130.0655975,43.2664642z"/>
		<path class="st1" d="M116.5164413,56.5380592c-2.4192505,0-4.3803101,1.9610596-4.3803101,4.3803101
			c0,2.4191284,1.9610596,4.3803139,4.3803101,4.3803139s4.3803101-1.9611855,4.3803101-4.3803139
			C120.8967514,58.4991188,118.9356918,56.5380592,116.5164413,56.5380592z M118.2593002,59.917881
			c-0.5635376,0-1.0205078-0.4569702-1.0205078-1.0206909c0-0.5635376,0.4569702-1.0205078,1.0205078-1.0205078
			c0.5637207,0,1.0205688,0.4569702,1.0205688,1.0205078C119.2798691,59.4609108,118.8230209,59.917881,118.2593002,59.917881z"/>
	</g>
</g>
</svg>
