<?xml version="1.0" encoding="utf-8"?>
<!-- Generator: Adobe Illustrator 20.1.0, SVG Export Plug-In . SVG Version: 6.00 Build 0)  -->
<svg version="1.1" id="Слой_1" xmlns="http://www.w3.org/2000/svg" xmlns:xlink="http://www.w3.org/1999/xlink" x="0px" y="0px"
	 width="356.9038086px" height="212.7020569px" viewBox="0 0 356.9038086 212.7020569"
	 style="enable-background:new 0 0 356.9038086 212.7020569;" xml:space="preserve">
<style type="text/css">
	.st0{fill:none;}
	.st1{fill:#FFFFFF;}
</style>
<g>
	<polygon class="st0" points="151.8190918,212.7020569 356.9038086,212.7020569 205.0847015,0 0,0 	"/>
</g>
<g>
	<path class="st1" d="M336.0823975,181.1735687c1.2347412,2.145874,2.3294678,4.331665,3.3348389,6.5303345l-14.7561035-20.9022827
		C329.3286133,171.1457367,333.1135254,176.0302582,336.0823975,181.1735687z"/>
	<path class="st1" d="M115.0014496,159.4844818c3.6535645,4.057312,6.7700195,8.5752563,9.3833008,13.2780151
		L115.0014496,159.4844818z"/>
	<path class="st1" d="M111.7153168,141.3873749l2.9515381,2.1936646c1.0313721,0.7178345,1.8692627,1.5079956,2.7457275,2.282959
		l2.625,2.3277588l2.5627441,2.713501c0.8275146,0.8840942,1.6842041,1.7460327,2.3994141,2.7238159l2.2456055,2.854248
		c0.7619629,0.9429932,1.3608398,1.9919434,2.0490723,2.9832764c2.7165527,3.9958496,4.864502,8.2873535,6.8232422,12.5639038
		c3.8371582,8.5988159,6.6234131,17.2723999,10.0791016,25.1071167c0.8203125,1.9892578,1.782959,3.8569946,2.6968994,5.7319946
		c0.9345703,1.8588867,1.9918213,3.6085205,2.9940186,5.3655396c0.557373,0.8374023,1.1113281,1.6706543,1.6635742,2.49823
		c0.3942871,0.5968018,0.7912598,1.1832886,1.2055664,1.7409058h-2.3087158l-14.8996582-21.0841064
		c-2.039917-5.7706299-3.9506836-11.6026611-6.2838135-17.2631836c-1.7507324-4.1409302-3.6533203-8.2443848-6.0725098-12.0322266
		c-0.6135254-0.9398193-1.1425781-1.9456787-1.8255615-2.8376465l-2.0076904-2.7124634
		c-0.6361084-0.934082-1.409668-1.7537842-2.1561279-2.5980225l-2.1706543-2.4660034l-2.5554199-2.4052124
		c-0.8514404-0.7994995-1.6947021-1.6394653-2.5762939-2.2736206l-2.614624-2.059021
		c-0.8566895-0.7012329-1.8619385-1.2714233-2.7840576-1.9145508c-1.824707-1.2459717-3.7314453-2.3676147-5.682373-3.4122925
		l-4.3948975-6.2191772c4.1639404,1.7738037,8.3377686,3.7293091,12.255249,6.230896
		C109.6869965,140.0852509,110.7381439,140.6424408,111.7153168,141.3873749z"/>
	<path class="st1" d="M115.6274261,130.585556l3.3444824,2.0886841c1.0958252,0.7490845,2.1594238,1.5848999,3.2416992,2.3786011
		l1.6154785,1.2097168l1.4389648,1.2745361l2.87146,2.5528564l2.7945557,2.968689l1.357666,1.4544067l1.2288818,1.5625
		c0.8087158,1.0490723,1.6582031,2.0725098,2.4327393,3.1439209l2.1862793,3.3054199
		c2.7738037,4.475647,5.1816406,9.1576538,7.121582,13.901001c4.0067139,9.4523315,6.9353027,18.927002,11.109375,27.2471313
		c0.9667969,2.1266479,2.1760254,4.0650024,3.2666016,6.0512085c0.5874023,0.9641724,1.2341309,1.87854,1.8400879,2.8127441
		c0.6113281,0.9335327,1.2143555,1.8707886,1.8984375,2.6749878c0.6580811,0.8389893,1.3099365,1.6731567,1.9606934,2.5033569
		c0.295166,0.414856,0.699707,0.8301392,1.0895996,1.2445068l1.1643066,1.2387085l1.1560059,1.2314453l0.5750732,0.6123047
		l0.2838135,0.302063c-0.03125-0.0338745-0.1164551-0.1269531-0.0291748-0.0374756l0.0748291,0.0654297l0.1140137,0.1019897
		h-9.029541c-0.1063232-0.133606-0.2132568-0.2617188-0.3183594-0.4049683
		c-0.7371826-0.9866333-1.4794922-1.9783936-2.2248535-2.9758911c-0.7818604-0.9882812-1.4099121-2.0236816-2.0522461-3.06073
		c-0.6394043-1.0407104-1.3183594-2.0672607-1.9274902-3.1339722c-1.1291504-2.1744385-2.3745117-4.3284912-3.340332-6.6037598
		c-4.1938477-9.0027466-6.8782959-18.6593628-10.5043945-27.8693848c-1.7518311-4.6439819-3.9017334-9.0874634-6.3792725-13.3519897
		l-1.9544678-3.1390991c-0.6945801-1.0162354-1.4584961-1.9830933-2.1843262-2.9806519l-1.1009521-1.4882812l-1.2277832-1.383728
		l-2.3879395-2.7025757l-2.8009033-2.630249l-1.399292-1.3103638l-1.4346924-1.1213379
		c-0.9648438-0.7407227-1.8920898-1.5172729-2.8839111-2.2377319l-3.0991211-2.0522461
		c-4.2156982-2.611084-8.6394043-4.9055786-13.255249-6.7935181c-3.6773682-1.5651855-7.4211426-2.9779053-11.1513672-4.3897705
		l-3.2873535-4.6520386c5.1690674,1.8411255,10.4941406,3.5978394,15.8099365,5.6868896
		C106.4007416,125.6821747,111.1020355,127.9464569,115.6274261,130.585556z"/>
	<path class="st1" d="M107.7626801,114.9802704c5.0878906,1.9373169,10.1707764,4.1647339,15.0517578,6.9192505
		c2.3786621,1.4902954,4.7937012,2.906189,7.0603027,4.7157593c1.157959,0.8571167,2.3295898,1.7148438,3.298584,2.6432495
		l3.1386719,2.8001709c3.9827881,4.0316772,7.5561523,8.4787598,10.5179443,13.2849731
		c2.8902588,4.8369141,5.2593994,9.8983765,7.3345947,14.9608765c4.0992432,10.1265259,7.2575684,20.2020264,12.1054688,28.8294067
		c0.6186523,1.0656738,1.1779785,2.1661377,1.8360596,3.1901245c0.6695557,1.0131836,1.3369141,2.0209961,2.0023193,3.0248413
		c0.6320801,1.0474243,1.4128418,1.8718262,2.1052246,2.805481l1.0604248,1.3592529l0.5343018,0.6777954l0.6342773,0.6774292
		c0.8452148,0.9003296,1.684082,1.7969971,2.5189209,2.687439l0.6258545,0.6673584l0.541748,0.4793091l1.2871094,1.1425781
		c0.8669434,0.7459717,1.6757812,1.5474854,2.5688477,2.2362671c0.9075928,0.6731567,1.8078613,1.3421021,2.7030029,2.0064087
		c0.8702393,0.6940308,1.8162842,1.2772217,2.7572021,1.8521729c0.2871094,0.1768799,0.5701904,0.3555298,0.8543701,0.5338745
		h-11.5306396c-0.6237793-0.5703735-1.2373047-1.1561279-1.8669434-1.7290039l-1.3930664-1.307251l-0.3493652-0.3275146
		l-0.1745605-0.1647949c-0.0749512-0.0748291,0.0424805,0.0535889-0.1893311-0.1902466l-0.0759277-0.0841675l-0.6070557-0.6830444
		c-0.8129883-0.9123535-1.630127-1.8292847-2.451416-2.7519531l-0.6165771-0.6923828l-0.6051025-0.791626l-1.204834-1.6083984
		c-0.7745361-1.0831909-1.6811523-2.1380005-2.329834-3.2685547c-0.6975098-1.1165771-1.4003906-2.2382812-2.1052246-3.3652954
		c-0.6861572-1.1347046-1.2612305-2.3308716-1.8994141-3.5004272c-4.9768066-9.4586182-7.9138184-19.8496704-11.6563721-29.7719116
		c-1.8858643-4.9575195-4.0170898-9.8084106-6.6048584-14.4093018c-2.6541748-4.5566406-5.8656006-8.7583618-9.4782715-12.6190796
		l-2.9223633-2.7384033c-0.9865723-0.9917603-2.0148926-1.7642212-3.0378418-2.5568848
		c-1.972168-1.6650391-4.2416992-3.0758057-6.4447021-4.5411377c-4.5556641-2.7228394-9.3858643-4.99646-14.317749-7.0195923
		c-9.821167-3.9926758-20.052002-7.1842041-29.1589355-12.2483521l-3.8303223-5.420105
		c1.6164551,1.0197144,3.2736816,1.9937134,5.0158691,2.8583984
		C87.4076996,108.2563934,97.5868988,111.1507416,107.7626801,114.9802704z"/>
	<path class="st1" d="M38.471302,47.0101776c1.217041,2.9553833,2.4119873,6.0795288,3.6485596,9.3417358l-2.6306152-3.7224731
		l-1.0179443-1.4406128v-1.3712158c-1.0909424-2.9686279-2.1883545-5.7860107-3.3570557-8.3959351
		c-2.3671875-5.3869019-4.9589844-9.9420147-7.5600586-13.5313702v-0.6882324
		c2.8215332,3.6091309,5.6773682,8.2822247,8.3076172,13.8770123C36.7591438,42.9538422,37.6203499,44.9436493,38.471302,47.0101776
		z"/>
	<path class="st1" d="M28.9855843,11.4474964c3.0115967,2.9694214,6.3730469,6.7182617,9.4857178,11.4344482
		c0.6192627,0.9382935,1.2320557,1.9009399,1.8265381,2.9187012c3.6356201,6.0933228,6.6745605,13.5250835,9.7081299,21.6477032
		c1.5428467,4.0529785,3.0887451,8.2926025,4.949585,12.5478516c0.8818359,2.1525879,1.9411621,4.2568359,2.9848633,6.406189
		c0.5197754,1.0770874,1.1561279,2.0974731,1.7341309,3.1604614c0.5874023,1.0578613,1.1748047,2.125,1.8786621,3.1277466
		c0.673584,1.0203857,1.3514404,2.048645,2.0355225,3.0830078c0.7537804,0.9663086,1.5137901,1.9389648,2.2779503,2.9172974
		c0.3876953,0.4849243,0.7495117,0.9844971,1.1622314,1.4627075l1.3182373,1.4086914
		c0.8712158,0.914856,1.7922363,1.9483032,2.635498,2.7810059c3.7375488,3.4978638,7.8845215,6.6978149,12.4786377,9.3811035
		c4.6263428,2.6287842,9.5906982,4.8358765,14.7564697,6.7976685c5.1639404,1.9649048,10.5397949,3.6973877,15.9179688,5.6966553
		c5.3675537,2.0106201,10.8110352,4.1761475,15.9550781,7.1183472c5.0921631,2.8563843,10.1604004,6.6577759,14.2502441,10.5512085
		l3.1396484,3.3466187c1.0666504,1.0577393,1.9274902,2.2866211,2.8642578,3.453064l1.3826904,1.7694702
		c0.4615479,0.588501,0.8348389,1.2351074,1.2579346,1.8499756c0.7995605,1.2564697,1.6915283,2.4655762,2.4088135,3.7630005
		c3.0794678,5.1040649,5.3885498,10.5288086,7.5343018,15.8673706c2.1342773,5.34729,3.9973145,10.6853638,6.0734863,15.7619019
		c2.0718994,5.0811768,4.3706055,9.9159546,7.0496826,14.3718872c0.715332,1.0800781,1.4263916,2.1566162,2.1333008,3.227478
		l0.5291748,0.8005981l0.5771484,0.7313232l1.142334,1.4580688c1.3713379,1.9425659,3.3924561,3.8684692,5.1203613,5.772583
		l0.0946045,0.1013794c-0.0093994-0.0130005,0.0695801,0.0649414,0.0582275,0.0508423l0.0861816,0.0769653l0.3461914,0.307251
		l0.6914062,0.6138306l1.3754883,1.2247314l1.362915,1.2179565c0.4688721,0.3851929,0.9710693,0.7297974,1.4523926,1.0952759
		c0.9699707,0.7203979,1.9337158,1.4372559,2.8901367,2.1483154c1.0157471,0.633606,2.0251465,1.2641602,3.0273438,1.8895264
		c0.9803467,0.6550293,2.0305176,1.1981812,3.0700684,1.7414551c1.0447998,0.5337524,2.0407715,1.1242676,3.1022949,1.6030273
		c2.1177979,0.9653931,4.1812744,1.9436035,6.3188477,2.7571411c1.3631592,0.557312,2.729126,1.0775757,4.0938721,1.5849609
		h-17.0865479c-1.0477295-0.5813599-2.098877-1.1696167-3.1048584-1.8709106
		c-1.0875244-0.7172852-2.1833496-1.43927-3.2854004-2.1665039c-1.0446777-0.8140869-2.0957031-1.6327515-3.1541748-2.4577026
		c-0.5229492-0.418457-1.0656738-0.8161011-1.5760498-1.2553711l-1.4846191-1.3853149l-1.4887695-1.3931274l-0.7475586-0.7006836
		l-0.3741455-0.3503418l-0.0936279-0.0883789c-0.0759277-0.076416,0.036377,0.0472412-0.1923828-0.1938477l-0.1630859-0.1830444
		c-1.7258301-2.0007324-3.5202637-3.7514648-5.2169189-6.1774292l-1.2871094-1.7232666l-0.6435547-0.8644409l-0.5623779-0.8898315
		c-0.7443848-1.1893921-1.4908447-2.3839722-2.2424316-3.5831909c-2.7956543-4.9065552-5.1057129-10.1113892-7.1193848-15.4104614
		c-2.0169678-5.3036499-3.7479248-10.6759644-5.7097168-15.9500122c-1.9680176-5.2594604-4.0483398-10.4857178-6.815918-15.3241577
		c-0.6433105-1.2402344-1.4501953-2.3723755-2.1665039-3.5680542c-0.3804932-0.5831299-0.7142334-1.2001953-1.1311035-1.7559204
		l-1.2475586-1.6727295c-0.8452148-1.1046143-1.614502-2.2758179-2.5855713-3.2774658l-2.7093506-3.0543823
		c-4.2104492-4.168457-8.3939209-7.4058838-13.2624512-10.3428345c-4.7979736-2.9047241-10.0043945-5.128418-15.2358398-7.2321167
		c-5.2429199-2.0959473-10.5783691-3.9573975-15.795166-6.0859985c-5.2126465-2.1245117-10.2880859-4.5244751-15.0246582-7.3704224
		c-4.7106934-2.9042969-8.9584961-6.3460083-12.7490234-10.074585c-0.9855957-1.0256348-1.7644043-1.9560547-2.6489258-2.9302979
		l-1.2840576-1.43927c-0.4127197-0.5016479-0.7943115-1.046936-1.1903076-1.5651855
		c-0.7807579-1.0490112-1.5554161-2.0923462-2.3256798-3.1287842c-0.6789551-1.0838623-1.3525391-2.1593018-2.0220947-3.2285767
		c-0.6986084-1.0510864-1.2766113-2.15979-1.8526611-3.2587891c-0.5655518-1.102478-1.1923828-2.1670532-1.6955566-3.2769165
		c-1.0147705-2.21698-2.0397949-4.387207-2.8778076-6.5849609c-1.7818604-4.3571167-3.2301025-8.6471558-4.6730957-12.7349243
		c-2.8341064-8.184021-5.6639404-15.6002197-9.1134033-21.7142925c-0.3638916-0.6593628-0.7373047-1.2942505-1.1134033-1.9212036
		c-3.1291504-5.2171021-6.6290283-9.333313-9.746582-12.5603027c-0.3939209-0.4039307-0.7838135-0.7849121-1.1705322-1.156189
		v-0.4662476C28.0261116,10.5316639,28.5032845,10.9759998,28.9855843,11.4474964z"/>
	<path class="st1" d="M192.1528168,195.3759613l-1.5803223-1.4768066l-0.7912598-0.7418213l-0.3969727-0.3716431
		l-0.098877-0.0930176c-0.0769043-0.0779419,0.0332031,0.041626-0.199585-0.1970825l-0.1726074-0.1932983
		c-0.9210205-1.0317993-1.8475342-2.0684204-2.7768555-3.1105957c-0.9420166-0.9694214-1.8348389-2.2824707-2.7467041-3.4677124
		c-0.9128418-1.2090454-1.8381348-2.4228516-2.5803223-3.6932373c-3.2895508-4.9606323-5.8395996-10.4191895-8.0354004-15.9593506
		c-2.2092285-5.5464478-4.0753174-11.2046509-6.0808105-16.7718506c-1.9908447-5.5740356-4.1896973-11.0424805-7.0205078-16.1674194
		c-2.8112793-5.1315918-6.2628174-9.8826904-10.3079834-14.1248779c-4.2584229-4.2427368-8.7890625-7.687561-13.9207764-10.6723022
		c-5.0847168-2.9666748-10.5397949-5.3104858-16.079834-7.4349365c-5.5361328-2.1395874-11.1439209-4.1335449-16.5925293-6.4483032
		c-5.4445801-2.3007812-10.7540283-4.9315796-15.5258789-8.2526245c-1.2371826-0.7594604-2.3662109-1.6665039-3.4973145-2.5585327
		c-1.1196289-0.9029541-2.303833-1.7185669-3.3092041-2.7353516c-1.041626-0.9735107-2.0770264-1.9419556-3.1074219-2.9056396
		c-1.0406494-1.0880127-1.8713379-2.0736084-2.809082-3.1064453c-0.4522705-0.5172729-0.9200439-1.0048828-1.3546143-1.5418701
		l-1.2558594-1.6763916c-0.8078613-1.1273804-1.7154541-2.1925049-2.4223633-3.3527832
		c-0.7215576-1.1508179-1.4389648-2.2949219-2.151001-3.432312c-0.6986084-1.144104-1.2724609-2.3464355-1.9077148-3.50354
		c-2.4306602-4.6845703-4.3726768-9.4294434-6.0372276-14.0584717c-1.6477051-4.6206055-3.239502-9.0847778-4.7687988-13.3711548
		c-1.5219727-4.277586-3.2414551-8.2578106-4.9931641-11.9921856c-0.9772949-1.8099976-1.8588867-3.6205444-2.8654785-5.2896118
		c-0.5175781-0.8270264-1.0280762-1.6410522-1.5302734-2.4441528c-0.4958496-0.8083496-0.9907227-1.6000366-1.5634766-2.3184814
		c-0.5500488-0.7365723-1.0905762-1.4605713-1.6218262-2.1727905c-0.5272217-0.7167969-1.0427246-1.4237671-1.6384277-2.0438843
		c-0.6650391-0.7356567-1.3067627-1.4607544-1.94104-2.1703491c-0.4624023-0.517334-0.9217529-1.0303345-1.37854-1.5140381
		c-1.4030762-1.3896484-2.7634277-2.6422729-4.0992432-3.7833252h0.7230225c1.2391357,1.0293579,2.5,2.1488647,3.7785645,3.3585205
		c0.326416,0.3297729,0.6513672,0.6801147,0.9761963,1.0230103c0.8077393,0.8527222,1.6177979,1.7280273,2.4710693,2.6292725
		c0.6165771,0.6149292,1.1530762,1.3156128,1.7041016,2.0283203c0.5539551,0.7084961,1.1174316,1.4294434,1.6904297,2.1618652
		c0.5987549,0.7158203,1.1164551,1.5054321,1.6374512,2.3110962c0.5280762,0.8016357,1.0644531,1.6156006,1.6081543,2.4411011
		c1.0583496,1.6686401,1.9919434,3.4775391,3.0253906,5.2922363c1.8568115,3.7322388,3.6906738,7.7244263,5.3187256,11.9874249
		c1.6260986,4.2489624,3.3195801,8.675293,5.0723877,13.2564087c1.7601318,4.5614014,3.7790489,9.1814575,6.2554893,13.6950073
		c0.6435547,1.1129761,1.2288818,2.2720947,1.9327393,3.3658447c0.71521,1.0853882,1.4346924,2.1775513,2.1591797,3.2763672
		c0.7111816,1.1109009,1.5864258,2.0792236,2.3757324,3.1344604l1.2161865,1.5595093
		c0.4315186,0.510498,0.9212646,0.9990845,1.3817139,1.5022583c0.9232178,0.9720459,1.9014893,2.0656738,2.7924805,2.9530029
		c1.0114746,0.9019165,2.0272217,1.8095093,3.0480957,2.7202148c0.9835205,0.9549561,2.1428223,1.7086792,3.234375,2.5502319
		c1.1030273,0.8296509,2.2009277,1.6743774,3.4099121,2.3761597c9.329834,6.1898804,20.5578613,9.5983887,31.8304443,13.6560059
		c5.6514893,2.0205078,11.3590088,4.3082886,16.7900391,7.3101807c5.3988037,2.9442139,10.6645508,6.7950439,15.0892334,11.0403442
		c4.4445801,4.4407959,8.2868652,9.4866333,11.4047852,14.8848877c3.1386719,5.3916016,5.5703125,11.085083,7.7243652,16.7038574
		c4.3208008,11.2171021,7.9855957,22.2770996,14.2399902,31.2174683c0.7182617,1.175293,1.5449219,2.1889038,2.3536377,3.2134399
		c0.8326416,1.027771,1.5084229,2.0564575,2.539917,3.0758057c0.9533691,1.0203857,1.9024658,2.0355835,2.8475342,3.0455933
		c0.9449463,0.84729,1.8848877,1.6904297,2.8204346,2.5288696c3.939209,3.3814697,8.1621094,6.2493286,12.6398926,8.4850464
		c4.4382324,2.298584,8.9855957,4.1642456,13.5422363,5.8016968c4.5307617,1.670105,9.0344238,3.1578369,13.3758545,4.7697144
		c2.5080566,0.8930664,4.9454346,1.8729858,7.3168945,2.8912964h-20.7984619
		c-0.814209-0.3115845-1.6275635-0.6228027-2.4517822-0.9382935c-4.6326904-1.7871094-9.4503174-3.882019-14.211792-6.4883423
		C201.0634613,202.5093842,196.4203949,199.2189789,192.1528168,195.3759613z"/>
	<path class="st1" d="M218.3191986,199.1259613c-2.5574951-1.1680908-5.0567627-2.6224976-7.5861816-4.0645142
		c-1.2247314-0.8041992-2.4556885-1.6134644-3.6949463-2.4275513c-1.2526855-0.7885132-2.3754883-1.7959595-3.5762939-2.6936035
		l-1.7767334-1.394165l-1.6633301-1.548584l-1.6677246-1.557373l-0.8356934-0.7827759l-0.1040039-0.09729
		c-0.0791016-0.0789795,0.0269775,0.0369263-0.2027588-0.2016602l-0.1820068-0.203186l-0.3637695-0.4080811
		c-0.9731445-1.088501-1.9504395-2.1816406-2.9328613-3.2800903c-0.9741211-1.1518555-1.9171143-2.4997559-2.8754883-3.7520142
		c-3.6721191-5.1164551-6.5882568-10.6645508-9.0241699-16.4500122c-2.4462891-5.7736816-4.3913574-11.713623-6.4726562-17.5484619
		c-2.078125-5.8355103-4.3114014-11.5919189-7.2067871-16.9886475l-1.0769043-2.0293579l-1.2111816-1.9431152
		c-0.8151855-1.2901611-1.5844727-2.6177979-2.5419922-3.8075562l-1.3702393-1.8361206
		c-0.4512939-0.6164551-0.9034424-1.2333984-1.4337158-1.7844238l-2.9816895-3.3527832l-3.4743652-3.2458496
		c-0.5738525-0.5728149-1.168457-1.0255127-1.7631836-1.4798584l-1.777832-1.3873901
		c-1.1403809-0.9637451-2.4638672-1.7731323-3.7404785-2.6208496l-1.9255371-1.262207l-2.0136719-1.1279907
		c-5.3582764-3.0325928-11.1002197-5.4080811-16.9013672-7.6205444c-5.8010254-2.2142944-11.6833496-4.28479-17.3430176-6.8287354
		c-5.6618652-2.5236816-11.0856934-5.5396729-15.9438477-9.1835938c-4.9152832-3.5836182-9.078125-7.953186-12.6096191-12.5244141
		c-0.8546143-1.1934814-1.8225098-2.3168335-2.5596924-3.5498657c-0.7650146-1.2178955-1.5240479-2.4290161-2.2799072-3.6324463
		c-1.3493652-2.4940796-2.7092285-4.9454956-3.7978516-7.473877c-2.2871094-5.0079346-4.1011963-10.027771-5.7895508-14.8693848
		c-1.7154503-4.833189-3.2935753-9.518858-5.1201134-13.8811626c-3.0974121-7.8647461-7.1203613-14.633728-11.5998535-20.0586548
		h1.1569824c4.4711914,5.305603,8.5378418,11.9116211,11.7246094,19.5155029
		c1.9440918,4.3726807,3.6335411,9.0473633,5.4538536,13.8364849c1.7913818,4.7998657,3.6970215,9.7241211,6.0444336,14.5797729
		c1.1218262,2.4561157,2.5003662,4.8082886,3.8601074,7.2020264c0.756958,1.1487427,1.5179443,2.3032837,2.2832031,3.4650879
		c0.7402344,1.1830444,1.6716309,2.1987915,2.5002441,3.3158569c3.5440674,4.3857422,7.6246338,8.4813232,12.4049072,11.8034668
		c4.7282715,3.3865967,9.9887695,6.1681519,15.5507812,8.5031128c5.5578613,2.3548584,11.4119873,4.2744751,17.3192139,6.3812866
		c5.9020996,2.1037598,11.8808594,4.4152832,17.5905762,7.4812012l2.145752,1.1431274l2.0720215,1.2896118
		c1.3774414,0.8717041,2.7779541,1.6899414,4.0898438,2.737915l1.9981689,1.4980469
		c0.6727295,0.4974976,1.3431396,0.9980469,1.9057617,1.5365601l3.5440674,3.1682739l3.4338379,3.668335
		c0.5802002,0.5827637,1.0822754,1.2324829,1.5823975,1.8823242l1.5146484,1.9399414
		c1.0562744,1.2636719,1.9140625,2.6588135,2.8175049,4.0223389l1.3400879,2.0547485l1.1933594,2.1296997
		c3.203125,5.6717529,5.6586914,11.6366577,7.8961182,17.5042725c2.2393799,5.8728638,4.2843018,11.6698608,6.7366943,17.1144409
		c2.4245605,5.4367065,5.3052979,10.5735474,8.6622314,15.043396c0.8764648,1.0849609,1.6333008,2.1697388,2.5814209,3.2478638
		c1.0064697,1.0765991,2.008667,2.1484375,3.003418,3.2145996l0.3743896,0.4006958l0.1871338,0.1990967
		c-0.1652832-0.1746216,0.0093994,0.0015869-0.0020752-0.015564l0.0977783,0.086792l0.7745361,0.68927l1.5395508,1.374939
		l1.5303955,1.3691406l1.6384277,1.2227173c1.109375,0.7858276,2.1260986,1.6778564,3.2884521,2.3677368
		c1.1414795,0.715271,2.2757568,1.4263306,3.4036865,2.1327515c2.3579102,1.2683716,4.6618652,2.5532837,7.0892334,3.5945435
		c9.5760498,4.3654785,19.5544434,7.0653687,28.597168,10.8418579c2.2746582,0.8659058,4.4537354,1.9695435,6.608902,2.9312134
		c1.0543213,0.5571899,2.0959473,1.1082153,3.1251221,1.6524048c1.0303955,0.5427246,2.0491943,1.078125,3.0065918,1.7139282
		c1.2749023,0.7993774,2.5292969,1.5707397,3.7480469,2.4057007h-15.5545807
		c-1.2496338-0.6153564-2.5184326-1.234436-3.8677979-1.7814331c-4.2086182-1.874939-8.8203125-3.5441284-13.6235352-5.3687134
		C228.458725,203.528183,223.3925629,201.5757294,218.3191986,199.1259613z"/>
	<path class="st1" d="M263.3009033,206.6138763c-1.0146484-0.5562134-2.0064697-1.1675415-3.0981445-1.65979
		c-4.2198639-2.1754761-8.9303131-4.0129395-13.8665924-5.9197388c-4.9455566-1.8816528-10.2154541-3.7566528-15.5601807-6.078125
		c-5.3343506-2.3277588-10.8068848-5.0385132-15.9210205-8.6627197c-2.5032959-1.8718262-5.0598145-3.755188-7.3303223-6.0090942
		l-1.7548828-1.6384277l-0.2182617-0.2053223c-0.0800781-0.0795288,0.0217285,0.0327759-0.2069092-0.204834l-0.0957031-0.1065674
		l-0.3825684-0.4282837l-0.7672119-0.8572388l-1.5397949-1.7210693c-0.5124512-0.5837402-1.036377-1.1134644-1.53125-1.8136597
		c-0.9960938-1.3286743-1.9971924-2.6624756-3.0014648-4.0020752c-0.8669434-1.3774414-1.7392578-2.7617188-2.614624-4.1506958
		c-1.6270752-2.8361206-3.1522217-5.7496948-4.4661865-8.7495728c-2.6750488-5.9846802-4.7729492-12.1798096-6.9344482-18.2845459
		c-2.1602783-6.1062012-4.4195557-12.1444092-7.380249-17.807251c-2.9422607-5.6665649-6.626709-10.9155884-11.0649414-15.5098267
		l-3.5512695-3.3132935c-0.5969238-0.6018677-1.2268066-1.0218506-1.8422852-1.5178833l-1.8537598-1.4455566l-0.9262695-0.7261963
		l-0.9980469-0.6611938l-2.0053711-1.3187866c-1.3078613-0.923645-2.7436523-1.6546021-4.1357422-2.4487305
		c-5.6264648-3.1012573-11.6520996-5.5023193-17.7183838-7.7936401c-6.0662842-2.2924805-12.1937256-4.5130615-18.0531006-7.27948
		c-5.8417969-2.7712402-11.4641113-6.0335083-16.2973633-10.1494141c-1.24646-0.9741821-2.3370361-2.1255493-3.5025635-3.1729736
		c-0.5770264-0.5634766-1.1383057-1.0047607-1.7236328-1.6660156l-1.5262451-1.7050171
		c-2.0749512-2.1713257-3.9193115-4.7640991-5.6887207-7.2348022c-3.4173584-5.0343628-5.9488525-10.416626-8.1259766-15.7015381
		c-2.1716309-5.298521-3.9223633-10.5590191-5.7126465-15.5804424c-1.8151855-5.0115356-3.5805664-9.8468628-5.737793-14.2705078
		c-1.0812988-2.3143921-2.2646446-4.5089722-3.5233116-6.5917969h1.4495811
		c1.1761475,1.901062,2.2939453,3.888855,3.3234863,5.9790039c2.2861328,4.4485474,4.1708984,9.2947388,6.1005859,14.2896729
		c1.9035645,5.0068359,3.755127,10.2029419,6.0037842,15.3724957c2.2539062,5.1586304,4.8321533,10.3428345,8.2286377,15.1235352
		c1.7550049,2.3292847,3.4411621,4.6503296,5.6203613,6.8433228l1.5615234,1.6727905
		c0.4345703,0.4777222,1.0842285,0.9923096,1.6175537,1.4892578c1.1395264,0.9783325,2.1998291,2.0595703,3.4152832,2.9661255
		c4.7000732,3.8378296,10.1425781,6.8444214,15.8605957,9.4128418c5.7357178,2.5631714,11.8070068,4.6237183,17.9564209,6.7991943
		c6.1463623,2.1763916,12.3977051,4.5057373,18.3796387,7.6381226c1.4846191,0.8041992,3.0046387,1.5438843,4.4195557,2.4925537
		l2.1582031,1.3561401l1.078125,0.684082l1.041626,0.77771c1.355835,1.0484009,2.8486328,2.0568848,4.0910645,3.1552124
		l3.7666016,3.3751221c4.8643799,4.8182373,8.9616699,10.4077759,12.208374,16.357666
		c3.2706299,5.9455566,5.7418213,12.1844482,8.0509033,18.2911987c2.3059082,6.1119995,4.4902344,12.1159058,7.1442871,17.7246704
		c1.3037109,2.8174438,2.7832031,5.4934692,4.3394775,8.0826416c0.8284912,1.256958,1.6540527,2.5101929,2.4754639,3.7577515
		c0.8918457,1.1430054,1.7797852,2.2809448,2.6655273,3.4146729c0.3981934,0.5692139,0.9750977,1.133728,1.4908447,1.6977539
		l1.5770264,1.6878052l0.7839355,0.8410034l0.3930664,0.420105l0.0966797,0.1044312
		c-0.1591797-0.1715088,0.015625,0.005188,0.005127-0.0098877l0.2037354,0.1815186l1.625,1.4481201
		c2.0916748,2.0023804,4.4505615,3.6485596,6.7481689,5.3021851c4.7001953,3.1885376,9.7944336,5.5863647,14.9031982,7.6906128
		c5.123291,2.0990601,10.3099365,3.826355,15.3937988,5.6369019c5.0692139,1.8380737,10.0407867,3.6511841,14.6931305,5.9191284
		c4.6627197,2.2799072,8.9573975,4.6887817,12.887207,7.7150269c0.9659424,0.7418213,2.0075684,1.4763794,2.8704834,2.208313
		c0.8193359,0.7333374,1.6279297,1.4575195,2.4255371,2.1706543c0.3991699,0.3566284,0.7941895,0.7111206,1.1882324,1.0631104
		l0.2932129,0.2623901l0.0737305,0.0661011c0.2839355,0.2734375,0.1206055,0.1195679,0.2006836,0.2000732l0.1434326,0.1523438
		l0.4041748,0.4330444h-11.9077148c-0.1812744-0.1394043-0.362915-0.2801514-0.5456543-0.4273071
		c-1.5419922-1.3047485-3.4257812-2.4743042-5.2939453-3.7109985
		C265.3427734,207.6846161,264.291626,207.2012177,263.3009033,206.6138763z"/>
	<path class="st1" d="M279.1875,203.5016937c-0.4439697-0.3461914-0.888916-0.694458-1.3369141-1.0442505
		c-0.4938965-0.3233032-0.9897461-0.6487427-1.4887695-0.975708c-1.0063477-0.644043-1.9868164-1.3458252-3.0419922-1.9675293
		c-4.2167969-2.5029907-8.9262695-4.6777954-13.9758301-6.7285156c-5.0473785-2.0507202-10.4897614-3.9287109-16.0727692-6.1602783
		c-5.5795898-2.2243652-11.3359375-4.8025513-16.8596191-8.2120972c-5.5484619-3.3491821-10.7258301-7.7416382-15.154541-12.7739258
		l-1.6166992-1.8078613l-1.5720215-2.0819092c-1.0500488-1.3915405-2.1269531-2.7821045-2.9805908-4.2433472
		c-1.8807373-2.855835-3.4973145-5.8831787-4.9849854-8.9620361c-2.9588623-6.1785278-5.1992188-12.6383057-7.4396973-19.0133667
		c-2.2402344-6.3759766-4.5244141-12.697998-7.5539551-18.6275024c-3.0065918-5.9327393-6.807373-11.4302368-11.44104-16.1990356
		l-3.7010498-3.4506226c-1.2695312-1.1113281-2.5710449-2.0287476-3.8529053-3.0606689
		c-2.6646729-1.9346924-5.5080566-3.7275391-8.4522705-5.3000488c-5.8947754-3.1687012-12.2043457-5.5952148-18.5375977-7.9661255
		c-6.3325195-2.3703003-12.7147217-4.7297363-18.7518311-7.770752c-6.0404053-3.0164795-11.6866455-6.7700806-16.5291748-11.2435303
		l-1.8037109-1.6816406c-0.3077393-0.3067017-0.5791016-0.5010986-0.9169922-0.8977661l-0.8005371-0.8945923
		c-1.0561523-1.210083-2.1550293-2.3334351-3.1604004-3.5996704c-0.9793701-1.3068848-1.9545898-2.6069336-2.923584-3.9012451
		c-0.8825684-1.3353882-1.7059326-2.6921387-2.5522461-4.0259399c-3.2114258-5.440979-5.6242676-11.1147442-7.7109375-16.6735821
		c-2.0958252-5.5610352-3.8632812-11.0357666-5.8405762-16.2069092c-1.026123-2.6838379-2.0986328-5.289856-3.2416992-7.8034668
		h1.7106934c1.0961914,2.3249512,2.1352539,4.7213135,3.1320801,7.1781616
		c2.1010742,5.1820679,3.9797363,10.625061,6.1660156,16.0872192c2.1779785,5.4611816,4.6553955,10.9587994,7.8647461,16.1548443
		c0.8442383,1.2688599,1.6676025,2.5668945,2.5378418,3.8305664c0.9345703,1.1987305,1.8743896,2.4036255,2.8183594,3.6142578
		c0.9844971,1.1945801,2.1396484,2.3323975,3.208252,3.5098267l0.8193359,0.878479
		c0.1787109,0.2172852,0.5531006,0.5099487,0.8201904,0.7625732l1.7601318,1.5745239
		c4.7189941,4.1834717,10.1665039,7.6532593,16.0561523,10.4487305c5.8874512,2.8184814,12.182373,5.0075073,18.5760498,7.2540894
		c6.3916016,2.2481689,12.9163818,4.5957031,19.1717529,7.7935791c3.1345215,1.5958252,6.1516113,3.4063721,9.0864258,5.449707
		c1.4222412,1.0890503,2.9453125,2.1489868,4.28125,3.2779541l3.9162598,3.5109253
		c5.0744629,5.0068359,9.2984619,10.8677368,12.6086426,17.0914917c3.3361816,6.2211304,5.8261719,12.7339478,8.204834,19.0803223
		c2.3754883,6.3521729,4.6855469,12.5692139,7.585083,18.3151855c1.4576416,2.8648071,3.0128174,5.6395264,4.7896729,8.2203979
		c0.8273926,1.3572388,1.7871094,2.5216675,2.7144775,3.7114258l1.383667,1.7861938l1.6489258,1.772522
		c4.1813965,4.5551147,8.8710938,8.3778076,14.0183105,11.3470459c5.112915,3.0123291,10.5273438,5.322937,15.96875,7.3642578
		c5.4404297,2.0507202,10.916153,3.8165283,16.2214508,5.8452759c5.3000488,2.0267944,10.4243164,4.2557983,15.1442871,6.9317627
		c1.1799316,0.6638184,2.2995605,1.4212036,3.4338379,2.1182861c0.5625,0.3555908,1.1237793,0.7089844,1.6801758,1.0609741
		c0.5456543,0.4058838,1.0893555,0.8098145,1.6289062,1.2106323c1.0750732,0.8125,2.1386719,1.6156006,3.1896973,2.4093628
		c0.8981934,0.8040771,1.7861328,1.5983276,2.6624756,2.3827515c3.6766357,3.2740479,6.6412354,6.7642822,9.1984863,10.2731934
		h-10.180542c-1.3173828-1.5528564-2.7441406-3.0722046-4.2919922-4.5011597
		c-0.8597412-0.8015137-1.730957-1.6134644-2.6125488-2.4358521
		C280.9486084,204.8672333,280.0732422,204.1883392,279.1875,203.5016937z"/>
	<path class="st1" d="M294.5251465,201.7217865l-0.4875488-0.5317383l-0.694458-0.6471558
		c-0.463623-0.4324341-0.9315186-0.8675537-1.4014893-1.3057251c-1.8911133-1.8963013-3.7738037-3.1958618-5.6971436-4.7329102
		c-4.1253662-2.9073486-8.7889404-5.5252075-13.9061279-7.8128662c-5.107666-2.3105469-10.6956787-4.281189-16.4834137-6.4810791
		c-5.7875977-2.1946411-11.8278809-4.6050415-17.715332-7.8444824c-1.4626465-0.8254395-2.9597168-1.6026001-4.3653564-2.5834961
		l-2.145752-1.4071655l-1.0718994-0.7131958l-1.0219727-0.7937622c-1.3442383-1.0853271-2.777832-2.0740967-4.0598145-3.2555542
		l-1.920166-1.7850952l-0.9616699-0.8961792l-0.4802246-0.449585l-0.2402344-0.2251587l-0.1204834-0.1121826
		c-0.020874-0.0151367-0.2589111-0.2630615-0.2078857-0.2136841c-1.1186523-1.2496338-2.2425537-2.5040283-3.371582-3.7624512
		c-1.1186523-1.3146362-2.1977539-2.8589478-3.2935791-4.2894897c-2.0687256-2.9520264-3.9017334-5.9893799-5.5286865-9.1789551
		c-3.2675781-6.3567505-5.6889648-13.0769043-8.0229492-19.7254639c-2.3400879-6.6478882-4.6304932-13.270874-7.7337646-19.4701538
		c-0.8254395-1.5153198-1.6009521-3.0669556-2.4659424-4.5618896c-0.9326172-1.4481812-1.8048096-2.9431763-2.7851562-4.3607788
		c-1.0439453-1.3685913-2.0407715-2.7788696-3.1210938-4.1231079l-3.3798828-3.7869263l-3.9276123-3.6584473
		c-1.3287354-1.1087646-2.6760254-2.0974731-4.0098877-3.1609497c-1.3898926-1.0011597-2.8808594-1.9135132-4.3155518-2.8782349
		c-1.4824219-0.8977661-3.024292-1.7086182-4.5317383-2.5689087c-6.1671143-3.2426147-12.7780762-5.6748657-19.3786621-8.1424561
		c-6.5996094-2.4622803-13.2293701-4.9990845-19.4317627-8.3383789c-6.206543-3.3132935-11.9226074-7.4675903-16.7474365-12.3482056
		c-1.1363525-1.2636108-2.2674561-2.5211182-3.3944092-3.7733154c-1.1071777-1.2439575-2.0803223-2.7019653-3.1147461-4.0337524
		l-0.762085-1.0188599l-0.6756592-1.0588379l-1.3308105-2.1146851c-0.9272461-1.3815918-1.6582031-2.861021-2.4368896-4.3035259
		c-3.0533447-5.8047485-5.3104248-11.7816162-7.3813477-17.5817261c-1.4020996-3.9111328-2.7165527-7.7503662-4.112915-11.463501
		h1.965332c1.3848877,3.5124512,2.7027588,7.1127319,4.0864258,10.7509155
		c2.1739502,5.7345581,4.5151367,11.5668945,7.5863037,17.1403809c0.7828369,1.3832397,1.5179443,2.8059082,2.4400635,4.117918
		l1.3212891,2.0126953l0.6665039,1.0059204l0.7369385,0.9423828c1.0147705,1.246521,1.894165,2.5496826,3.0211182,3.7687378
		c1.1208496,1.1986084,2.2456055,2.4036255,3.3757324,3.6126709c4.7105713,4.5785522,10.2196045,8.423584,16.2504883,11.4962158
		c6.027832,3.0970459,12.5368652,5.4503174,19.1750488,7.7796021c6.6328125,2.3370972,13.4423828,4.6813965,19.9743652,7.9521484
		c1.6062012,0.8712158,3.2415771,1.6935425,4.8291016,2.6136475c1.5500488,0.9938965,3.1281738,1.9207153,4.6574707,2.9784546
		c1.487793,1.1291504,3.0400391,2.2420654,4.4726562,3.401123l3.9973145,3.581604l3.861084,4.1362305
		c1.1883545,1.4180298,2.2904053,2.9077759,3.4381104,4.3622437c1.0802002,1.5001831,2.0471191,3.0752563,3.0731201,4.6107788
		c0.9533691,1.5760498,1.8100586,3.2005005,2.7165527,4.7994995c3.4100342,6.5012817,5.8969727,13.2973633,8.3608398,19.8813477
		c2.456543,6.59021,4.9267578,13.0094604,8.095459,18.8823242c1.5668945,2.9328003,3.3487549,5.7449951,5.2387695,8.3352661
		c1.0063477,1.246521,1.8745117,2.4955444,2.967041,3.7353516c1.1519775,1.2371826,2.3007812,2.4691162,3.444458,3.6968994
		c1.1580811,1.0333862,2.3099365,2.0626221,3.456665,3.0877075c1.1799316,1.052124,2.508667,1.9176636,3.7426758,2.8818359
		l0.9388428,0.7039185l0.9918213,0.6289062l1.9824219,1.2449341c1.288208,0.8707275,2.6938477,1.55896,4.0556641,2.2940063
		c5.4893799,2.8844604,11.260376,5.0723877,17.0073395,7.1229858c5.7460938,2.0606079,11.4963379,3.9568481,16.9865723,6.3074341
		c5.496582,2.3309326,10.6843262,5.0853882,15.3937988,8.2807617c2.3226318,1.7454834,4.7480469,3.4770508,6.5195312,5.1990967
		c0.4782715,0.4284058,0.9533691,0.8551636,1.425293,1.2782593l0.7080078,0.6331787l0.0883789,0.0789795l0.2121582,0.2068481
		l0.1726074,0.1809082l0.3461914,0.3613281c0.9116211,0.9673462,1.8411865,1.8999634,2.7050781,2.8682861
		c3.4577637,3.883606,6.2180176,8,8.4916992,11.9771118c0.25,0.4412842,0.4882812,0.878479,0.7268066,1.3156738h-9.293457
		c-1.6550293-2.7616577-3.5637207-5.5223999-5.8312988-8.1694946
		C296.1210938,203.4346161,295.3132324,202.5972137,294.5251465,201.7217865z"/>
	<path class="st1" d="M307.958252,199.901474c-0.3721924-0.4782104-0.7443848-0.9591064-1.1218262-1.4425049
		c-0.7702637-0.9508057-1.4709473-1.9836426-2.3515625-2.8812866c-0.4230957-0.4642944-0.8483887-0.9315186-1.2745361-1.4014282
		l-0.6414795-0.7080688l-0.3212891-0.3560791c0.0177002,0.015625-0.0581055-0.0602417-0.0529785-0.0576782l-0.1871338-0.1740723
		c-1.0001221-0.9320679-2.0106201-1.8729248-3.0325928-2.8242188l-0.7683105-0.7157593
		c-0.2558594-0.2287598-0.5084229-0.3986816-0.7630615-0.6029663c-0.5084229-0.3925171-1.0189209-0.7880859-1.5324707-1.1851807
		c-0.5113525-0.4002686-1.026001-0.8026123-1.5428467-1.2064819c-0.526001-0.3997803-1.1300049-0.7548218-1.6955566-1.1374512
		c-1.1685791-0.7297363-2.2695312-1.5739746-3.5202637-2.2351685c-1.236084-0.6856079-2.4816895-1.3774414-3.7385254-2.0745239
		c-5.1357422-2.6479492-10.814209-4.8504639-16.7858887-7.0861816c-5.9685059-2.2419434-12.265625-4.526001-18.5075836-7.5799561
		c-6.2355957-3.0341797-12.3818359-6.9332886-17.7609863-11.8964844l-2.0117188-1.8733521l-0.5020752-0.4694824l-0.536499-0.5873413
		l-0.8806152-0.9814453l-1.7652588-1.9679565c-0.2930908-0.3378906-0.5925293-0.6379395-0.8815918-1.006897l-0.8575439-1.1337891
		c-2.3693848-3.0117798-4.3884277-6.1223145-6.1953125-9.378418c-3.6252441-6.5205688-6.253418-13.5095825-8.7069092-20.4351196
		c-2.4576416-6.9301147-4.8010254-13.8452148-7.9520264-20.3428955
		c-3.1126709-6.5081177-7.1538086-12.5255127-12.2001953-17.6576538l-4.013916-3.7354126l-4.1772461-3.2653809l-4.5266113-2.9562988
		c-1.588623-0.8674927-3.1396484-1.791748-4.7531738-2.6166992c-6.4686279-3.2904053-13.3696289-5.7756958-20.244751-8.3591919
		c-6.8719482-2.5787964-13.7574463-5.3182373-20.1096191-9.0031738
		c-6.3604736-3.6465454-12.0909424-8.3030396-16.7868652-13.6410522c-0.5780029-0.6569824-1.1727295-1.2818604-1.7352295-1.9611816
		l-1.614502-2.1468487l-1.6020508-2.1380005l-1.4077148-2.2191162l-1.3920898-2.211853
		c-0.4417725-0.7463989-0.8254395-1.5219727-1.2391357-2.2783203l-1.215332-2.2752075
		c-0.3983154-0.7589722-0.725708-1.5460205-1.0895996-2.314209c-2.6741943-5.7264404-4.7143555-11.5308228-6.6981201-17.1519165
		h2.2332764c2.0042725,5.354126,4.0655518,10.8058472,6.6616211,16.1013794
		c0.3690186,0.7416992,0.7017822,1.5063477,1.1029053,2.2351685l1.2186279,2.1817017
		c0.4157715,0.7245483,0.7994385,1.470459,1.2391357,2.1826782l1.3828125,2.104126l1.3909912,2.1089478l1.541626,1.9763184
		l1.5429688,1.9862671c0.5551758,0.6486816,1.1748047,1.2766705,1.7612305,1.9180889
		c4.6179199,5.0526123,10.1247559,9.3562012,16.2908936,12.7437744c6.1546631,3.4193726,12.8831787,5.9612427,19.7696533,8.3987427
		c6.8833008,2.4441528,13.9685059,4.8353271,20.7988281,8.1486206c1.7028809,0.8306885,3.3642578,1.7735596,5.0495605,2.6582642
		c1.6333008,0.9918823,3.2446289,2.0272827,4.8674316,3.0513916c1.557373,1.1705933,3.1407471,2.3396606,4.675293,3.5305786
		l4.229248,3.7972412c5.5152588,5.3945923,10.0002441,11.8294678,13.4101562,18.6358643
		c3.4536133,6.7991943,5.9873047,13.8712769,8.557251,20.699646c2.5616455,6.8323975,5.2158203,13.4585571,8.694458,19.4431152
		c1.7299805,2.9931641,3.6781006,5.8406982,5.7346191,8.3690796l0.7526855,0.9777222
		c0.2587891,0.3248901,0.5904541,0.6467285,0.8825684,0.9710083l1.8017578,1.9347534l0.8981934,0.9638062l0.3554688,0.3804321
		l0.4680176,0.4174194l1.8608398,1.6655884c4.9715576,4.4137573,10.59375,7.8491211,16.4780273,10.5807495
		c5.8845367,2.7467041,12.0078278,4.8510132,18.0564117,6.9915161c6.0466309,2.1380005,12.0432129,4.3217773,17.6737061,7.0898438
		c1.3973389,0.7125854,2.7664795,1.4674072,4.1326904,2.1920776c1.3764648,0.7016602,2.640625,1.612915,3.9473877,2.4014893
		c0.6446533,0.4200439,1.2965088,0.7901001,1.925415,1.2459717c0.6269531,0.4689331,1.2496338,0.9356689,1.8691406,1.401001
		c1.1977539,0.934082,2.5710449,1.8556519,3.5275879,2.793457c1.0385742,0.9320068,2.0688477,1.8547363,3.0856934,2.7669678
		l0.1901855,0.1709595l0.0957031,0.0852661c0.2785645,0.2672119,0.1298828,0.1304932,0.2172852,0.215271l0.3710938,0.3929443
		l0.7402344,0.7828979c0.4916992,0.5213013,0.9804688,1.0390015,1.4669189,1.5541382
		c1.005249,1.0021973,1.8276367,2.140686,2.7164307,3.2011108c0.4335938,0.5395508,0.8640137,1.0754395,1.2923584,1.6082764
		c0.3919678,0.5582886,0.7818604,1.1123657,1.1685791,1.6633911c3.1137695,4.3955688,5.5693359,8.8800049,7.5112305,13.1585693
		c0.368042,0.8043823,0.7006836,1.5827026,1.0437012,2.3688965h-8.8532715
		c-1.652832-3.6995239-3.6455078-7.4271851-6.1245117-11.071106
		C308.6330566,200.9052582,308.2961426,200.4051361,307.958252,199.901474z"/>
	<path class="st1" d="M318.972168,196.1197357c-0.6925049-1.0806274-1.3931885-2.1748047-2.1032715-3.2810059
		c-1.5688477-2.0958862-3.1262207-4.2884521-5.0297852-6.2611084c-0.4573975-0.5095215-0.9179688-1.022583-1.3795166-1.5371704
		l-0.0872803-0.097229c-0.067627-0.0665283-0.0458984-0.0482788-0.0146484-0.0202026l-0.157959-0.1466064l-0.4055176-0.3773804
		l-0.8128662-0.7564087c-0.5438232-0.5062866-1.0905762-1.0146484-1.6385498-1.5250854
		c-0.5478516-0.5021973-1.1040039-1.0645752-1.6488037-1.4434814c-1.0916748-0.8483887-2.1937256-1.7045288-3.3050537-2.5689697
		c-1.2182617-0.8031006-2.4493408-1.6135864-3.6895752-2.4311523c-5.0776367-3.135498-10.8006592-5.7149048-16.9293213-8.0945435
		c-6.1225586-2.3964233-12.6574707-4.6248779-19.2446289-7.5005493
		c-6.5756989-2.8610229-13.2086334-6.4716797-19.1147614-11.3115845l-1.1237793-0.8831787l-1.0511475-0.9747314
		l-2.1063232-1.9581299l-1.0540771-0.9824829l-0.1322021-0.1231689l-0.2077637-0.2255859l-0.230835-0.2567749l-0.4605713-0.5135498
		l-1.8474121-2.0584717c-1.251709-1.2834473-2.4265137-2.9957275-3.6262207-4.5556641
		c-1.2641602-1.5689087-2.1833496-3.2489014-3.2529297-4.8883667c-4.0639648-6.6583252-6.9812012-13.9320679-9.5449219-21.1654053
		c-2.5908203-7.2368164-4.9798584-14.4783936-8.2078857-21.2879028c-3.197876-6.8101196-7.3170166-13.15448-12.5941162-18.492981
		l-4.1906738-3.8861084c-1.4680176-1.1124878-2.8798828-2.2768555-4.3842773-3.3653564
		c-1.588501-1.0037231-3.1064453-2.114624-4.75-3.0372925c-1.6655273-0.8883667-3.2509766-1.9055786-4.9849854-2.6801758
		c-6.7814941-3.3677979-14.0091553-5.8988647-21.1824951-8.612793c-7.1745605-2.687439-14.3282471-5.7096558-20.8029785-9.8187256
		c-1.5865479-1.0745239-3.2468262-2.0247803-4.7116699-3.2530518c-1.4887695-1.1888428-3.0554199-2.2721558-4.3925781-3.6169434
		l-2.0739746-1.9290142c-0.3575439-0.3461914-0.6560059-0.5853271-1.0634766-1.0177612l-0.920166-1.0245361l-1.8337402-2.0429077
		l-0.9139404-1.0188599l-0.852417-1.1222534c-4.6835938-5.9176025-8.0457764-12.3840942-10.7634277-18.9223022
		c-0.6693115-1.609436-1.3007812-3.2193604-1.9077148-4.8250122h2.5385742
		c0.5220947,1.291748,1.0478516,2.583374,1.6096191,3.8679199c2.7519531,6.3344727,6.2045898,12.6092529,10.6624756,18.0423584
		l0.8128662,1.0411377l0.9326172,1.001709l1.8693848,2.0106201l0.9376221,1.0074463
		c0.2266846,0.2313232,0.6392822,0.5806274,0.9503174,0.8649902l2.0106201,1.8037109
		c1.2943115,1.262146,2.8131104,2.2638531,4.2489014,3.3725567c1.409668,1.1462402,3.0231934,2.024231,4.5524902,3.0237427
		c6.2565918,3.815979,13.1992188,6.6168213,20.364502,9.1555176c7.1567383,2.5637207,14.5494385,4.9943848,21.6938477,8.3800049
		c1.8131104,0.7745972,3.519043,1.8146973,5.2844238,2.7218018c1.7486572,0.9428711,3.3933105,2.0916748,5.0963135,3.1333618
		c1.6571045,1.1503906,3.2674561,2.4239502,4.9007568,3.6408081l4.4133301,3.9547729
		c5.7636719,5.6176147,10.3349609,12.4033813,13.8259277,19.5133667c3.5266113,7.1141968,6.0986328,14.4940186,8.7860107,21.5879517
		c2.6602783,7.1063843,5.5661621,13.9290161,9.4284668,20.0020142c1.005249,1.475708,1.9118652,3.069519,3.0220947,4.3757324
		c1.1010742,1.364624,2.0107422,2.7373657,3.3642578,4.0863037l1.8848877,2.0251465l0.7049561,0.7579956
		c-0.0012207-0.0005493,0.0134277,0.0150146,0.0311279,0.0332031l0.1153564,0.1045532l0.979248,0.8753052l1.9472656,1.7456055
		l0.9680176,0.8716431l1.0395508,0.7824097c5.4445801,4.2988892,11.5534821,7.503479,17.8515778,10.1124268
		c6.3012695,2.6203613,12.7884521,4.7089844,19.1312256,7.0570068c6.3428955,2.3339844,12.5545654,4.9783325,18.2269287,8.3415527
		c1.3951416,0.8851929,2.777832,1.7626343,4.1491699,2.6322632c1.3389893,1.0084839,2.666626,2.0076294,3.9807129,2.9972534
		c0.6965332,0.4954834,1.2080078,1.0027466,1.7756348,1.5028687c0.5583496,0.5010986,1.1135254,0.9995117,1.6665039,1.4954224
		l0.8265381,0.7423096l0.4117432,0.3696289l0.2069092,0.18396c0.0072021,0.0037231,0.2962646,0.2859497,0.2224121,0.2178345
		l0.0987549,0.1071167c0.5322266,0.567627,1.0604248,1.133667,1.5875244,1.696167
		c2.1768799,2.1915283,3.9869385,4.6148682,5.7866211,6.9509888c0.81604,1.2236328,1.6239014,2.4332275,2.4212646,3.6277466
		c0.8015137,1.1940918,1.435791,2.4509277,2.1468506,3.6517334c2.6864014,4.8649292,4.8155518,9.6617432,6.5393066,14.145752
		c0.3482666,0.8978271,0.6763916,1.7608032,1.0084229,2.6307983h-8.6604004
		c-1.5703125-4.2860718-3.4365234-8.6506958-5.7479248-13.0245361
		C320.2248535,198.358139,319.671875,197.1952972,318.972168,196.1197357z"/>
	<path class="st1" d="M322.1740723,180.8886566c-0.9562988-1.1082153-1.9626465-2.1929932-2.9534912-3.3117065l-0.7496338-0.8384399
		l-0.7568359-0.7012329c-0.5852051-0.5452881-1.1746826-1.0927124-1.7663574-1.6431885
		c-0.5904541-0.5317383-1.1871338-1.1410522-1.7797852-1.6176147c-0.5894775-0.4544067-1.1831055-0.9117432-1.7767334-1.3707886
		c-0.5926514-0.4620972-1.1882324-0.9268188-1.7860107-1.3925781c-0.6237793-0.4522095-1.3100586-0.8670654-1.9648438-1.3067627
		c-1.3225098-0.8728638-2.6448975-1.7695312-4.0910645-2.5195312c-1.4169922-0.7891846-2.8256836-1.6141357-4.3466797-2.300293
		c-1.4960938-0.7224731-2.9909668-1.4684448-4.5765381-2.1104126c-6.2366943-2.7166138-13.0057373-5.0073853-19.9368896-7.7473755
		c-6.916748-2.7336426-14.038208-6.0079956-20.5630035-10.6203003c-1.5895996-1.2033691-3.1697998-2.4385376-4.7458496-3.6829224
		l-2.2165527-2.0559082l-1.1092529-1.0317993l-0.8327637-0.7750244l-0.1392822-0.1299438l-0.21521-0.2297363
		c-1.2901611-1.4529419-2.5969238-2.8569336-3.887207-4.362915c-1.2371826-1.6664429-2.5699463-3.3132935-3.7156982-5.0223389
		c-4.5743408-6.8002319-7.8314209-14.3812256-10.6114502-21.9586182
		c-2.7893066-7.5924072-5.2022705-15.2217407-8.5280762-22.3926392c-0.4219971-0.8904419-0.8067627-1.8068237-1.2600098-2.6796875
		l-1.3909912-2.6005249c-0.8701172-1.7737427-2.0180664-3.3627319-3.034668-5.0432739
		c-0.4929199-0.852478-1.1228027-1.604187-1.7009277-2.3948975l-1.762207-2.3526001
		c-0.6060791-0.7693481-1.2973633-1.4674072-1.940918-2.2061157l-1.8911133-2.1213989
		c-1.4918213-1.3665161-2.9702148-2.8059082-4.4724121-4.1132202l-2.2851562-1.7705078
		c-0.7692871-0.583313-1.4897461-1.2122803-2.3422852-1.7258301c-1.6655273-1.0490112-3.2436523-2.2299805-5.0079346-3.1344604
		l-2.5865479-1.4435425c-0.8681641-0.4709473-1.7810059-0.8717041-2.6687012-1.3120117
		c-7.1413574-3.4650879-14.7575684-6.0205078-22.276123-8.928833c-7.5073242-2.8985596-14.9499512-6.2518921-21.5527344-10.8558941
		c-1.6467285-1.1446533-3.1875-2.4369507-4.7750244-3.6434326c-1.4938965-1.3218994-2.9298096-2.7024536-4.3851318-4.0435791
		c-1.4139404-1.5234985-2.6157227-2.8980103-3.9257812-4.3456421c-1.2026367-1.5725098-2.4035645-3.1589355-3.5617676-4.7417603
		c-2.6397705-3.8704834-4.8028564-7.9484863-6.6760254-12.081604h2.8735352
		c1.767334,3.6152344,3.760498,7.1420288,6.1168213,10.4712524c1.1290283,1.4554443,2.2631836,2.916626,3.4017334,4.3840332
		c1.2941895,1.3864136,2.59375,2.7778931,3.8985596,4.1746216c1.4139404,1.2539062,2.8028564,2.5455322,4.244751,3.7817383
		c1.5366211,1.1212158,3.0170898,2.3266602,4.607666,3.3912354c6.3657227,4.2775879,13.5620117,7.3865948,21.0130615,10.1176739
		c7.4489746,2.7409668,15.2149658,5.1898193,22.7210693,8.668457c0.9346924,0.4434204,1.8869629,0.8447876,2.8071289,1.322998
		l2.7507324,1.4715576c1.8662109,0.9226685,3.5795898,2.1437378,5.364502,3.2327271
		c0.8983154,0.5234375,1.7341309,1.2116699,2.5917969,1.8422241l2.5585938,1.9301147
		c1.5822754,1.3338013,3.0429688,2.7103271,4.5701904,4.0628662l2.2227783,2.3796387
		c0.704834,0.7803345,1.4575195,1.5220337,2.1228027,2.3366699l1.9379883,2.4903564
		c0.6352539,0.8379517,1.3223877,1.6410522,1.8671875,2.5393677c1.1207275,1.7699585,2.3765869,3.4718018,3.3330078,5.328125
		l1.5231934,2.7372437c0.4968262,0.9176025,0.9138184,1.864624,1.3753662,2.7950439
		c3.6190186,7.4782104,6.2086182,15.2317505,9.0687256,22.6063232c2.8496094,7.3808594,6.0568848,14.4389038,10.3608398,20.6069946
		c1.0646973,1.527832,2.2310791,2.9016724,3.3206787,4.3592529c1.2683105,1.430481,2.6334229,2.850647,3.9381104,4.2692261
		c1.3400879,1.204895,2.677002,2.40625,4.0068359,3.6018066c1.4658203,1.0979004,2.9265289,2.1904907,4.3798981,3.279541
		c6.0205078,4.100769,12.6668701,7.0455322,19.4202881,9.5806885c6.7565918,2.5413818,13.6420898,4.7370605,20.2717285,7.484375
		c6.6536865,2.7445679,12.9216309,6.0245361,18.5855713,10.3151245c0.7110596,0.5391235,1.420166,1.0761108,2.125,1.6104126
		c0.6809082,0.5380249,1.230957,1.0848999,1.8483887,1.6233521c0.5998535,0.5396729,1.1987305,1.0770874,1.793457,1.6115112
		l1.010498,0.9158325l0.8596191,0.9222412c1.1385498,1.2319336,2.2873535,2.435791,3.3798828,3.6672974
		c1.0106201,1.2990112,2.0096436,2.5855103,2.9993896,3.8590698c3.770752,5.2355347,6.6265869,10.6972656,8.9512939,15.9386597
		c2.0576172,4.6240234,3.6672363,9.0546265,5.2199707,13.2012939c0.2116699,0.5651245,0.4259033,1.1429443,0.6362305,1.6965332
		c0.2055664,0.5604248,0.4101562,1.0922241,0.6152344,1.6390381h-1.2514648h-7.3635254
		c-3.2075195-9.0636597-6.6025391-19.0079956-12.9238281-28.1028442
		C323.9228516,183.222641,323.0517578,182.0614471,322.1740723,180.8886566z"/>
	<path class="st1" d="M322.6784668,164.9547577c-0.6259766-0.5270996-1.2486572-0.9710083-1.8754883-1.4663696
		c-0.6237793-0.486084-1.251709-0.9746094-1.8818359-1.4643555c-0.6174316-0.4994507-1.3659668-0.9179688-2.0471191-1.3858643
		c-1.3908691-0.9179688-2.7839355-1.8577881-4.3029785-2.645813c-0.7443848-0.4152832-1.4897461-0.8321533-2.2404785-1.2506714
		c-0.7525635-0.4143066-1.5561523-0.7625122-2.3348389-1.1503906c-6.2679443-3.0637207-13.1783447-5.5062866-20.3363037-8.2005615
		c-7.1463623-2.6760254-14.5932617-5.7611084-21.5275879-10.2153931
		c-6.947876-4.4205933-13.2221832-10.2175293-18.1997223-17.015686c-2.5981445-3.4598389-4.654541-7.1152344-6.6204834-10.8880005
		c-0.8826904-1.9129639-1.8161621-3.821228-2.6260986-5.7642822c-0.7868652-1.9483032-1.6207275-3.8944702-2.324707-5.8609619
		c-2.961792-7.8424683-5.3883057-15.795105-8.7838135-23.2372437c-3.3516846-7.4500732-7.6994629-14.4077759-13.4049072-20.2115479
		l-2.2382812-2.0776367c-0.7746582-0.6887817-1.5292969-1.4908447-2.3215332-2.0870972l-2.3631592-1.8312988L206.0681,47.2810516
		c-0.4042969-0.2963257-0.8461914-0.5620117-1.267334-0.8447876c-1.7028809-1.1154785-3.3839111-2.2663574-5.2043457-3.2092896
		c-0.8972168-0.4891357-1.7746582-1.0110474-2.6875-1.4758301l-2.7736816-1.3363647
		c-7.4146729-3.5363159-15.3511963-6.1021729-23.1120605-9.1815166c-1.9493408-0.7324219-3.8674316-1.5927124-5.7885742-2.4051514
		c-1.9160156-0.8348389-3.7884521-1.7892456-5.6669922-2.692688c-3.6813965-1.9919434-7.2972412-4.1116943-10.5836182-6.6656494
		l-2.4586182-1.9108276c-0.8265381-0.6253052-1.5377197-1.3868408-2.3100586-2.0714722l-2.2653809-2.1052246l-0.1403809-0.131958
		c-0.0383301-0.0317383-0.1777344-0.1846313-0.1799316-0.1860962l-0.2514648-0.2802124l-0.5031738-0.5598755l-1.0043945-1.1176147
		l-2.0023193-2.2320557l-1.862915-2.4685669c-0.6009521-0.8302002-1.2705078-1.6244507-1.8100586-2.4790039l-1.614502-2.5575562
		c-0.2338867-0.3772584-0.4489746-0.7613526-0.6749268-1.1415405h3.2962646l1.3562012,2.0725098
		c0.5302734,0.8114624,1.1602783,1.5256958,1.7362061,2.2960815l1.7652588,2.277832l2.0388184,2.1972656l1.0229492,1.1008911
		l0.5114746,0.5515747l0.2568359,0.2755127c0.0852051,0.0910034,0.026001,0.0327759,0.0831299,0.0821533l0.1383057,0.1231689
		l2.1915283,1.9680176c0.7454834,0.6394043,1.430542,1.3552246,2.2288818,1.9363403l2.3704834,1.7788086
		c3.1635742,2.3786011,6.6516113,4.3435059,10.2133789,6.1982422c1.8327637,0.8415527,3.6427002,1.7294312,5.5192871,2.5106812
		c1.8890381,0.7605591,3.7562256,1.5636597,5.6951904,2.2561035c7.6734619,2.9030762,15.7108154,5.3472881,23.4987793,8.8955059
		l2.9130859,1.3458862c0.9626465,0.4703979,1.9003906,1.0042114,2.8537598,1.5048828
		c1.925415,0.9616089,3.7385254,2.149353,5.5681152,3.3085938c0.4555664,0.2952271,0.920166,0.5654907,1.3671875,0.8821411
		l1.3254395,0.9927979l2.6470947,1.9976807c0.8919678,0.6643066,1.5947266,1.3951416,2.4014893,2.0891724l2.4171143,2.1780396
		c6.2253418,6.1139526,11.0418701,13.5645752,14.6785889,21.3190918c3.6895752,7.7619629,6.2720947,15.7816772,9.2922363,23.3746338
		c0.7214355,1.9217529,1.5511475,3.7603149,2.3370361,5.623291c0.8067627,1.848999,1.7154541,3.6236572,2.5782471,5.4222412
		c1.8807373,3.4682007,3.9091797,6.916626,6.2431641,9.9082031c4.7146149,6.2210693,10.5002594,11.3813477,16.9178619,15.3204956
		c12.8643799,8.0046997,28.0159912,11.0039673,41.5695801,17.3972168c0.7244873,0.3439941,1.4521484,0.6640625,2.1668701,1.0199585
		l11.5554199,16.3688354c-0.036499-0.0339966-0.0705566-0.069458-0.1071777-0.1033936
		C323.9311523,166.1197357,323.3051758,165.5380096,322.6784668,164.9547577z"/>
	<path class="st1" d="M343.2485352,197.0840912c-1.1605225-3.1060181-2.4030762-6.2565308-3.8312988-9.380188l5.6538086,8.0089111
		l11.8327637,16.7614746h-8.0854492c0,0-0.0003662-0.0006714-0.0004883-0.0010376
		c-1.2850342-3.3352661-2.4880371-6.8100586-3.7468262-10.3566895
		C344.4803467,200.4523163,343.8806152,198.7773285,343.2485352,197.0840912z"/>
	<path class="st1" d="M272.1325684,127.0233612c-1.5637207-1.2299194-3.1708984-2.4176636-4.7075195-3.7026978l-2.2092285-2.0491333
		l-1.1051025-1.0286865l-0.5531006-0.5151978l-0.1381836-0.1294556c0.036377,0.0432739-0.204834-0.2026978-0.2235107-0.2265015
		l-0.2412109-0.2693481c-1.2840576-1.4602051-2.5948486-2.8204956-3.8695068-4.3757324
		c-1.2247314-1.6639404-2.5803223-3.2977905-3.6823883-5.0131226c-4.5400391-6.7903442-7.7722168-14.348999-10.5377197-21.9024048
		c-2.7738037-7.5696411-5.1867676-15.1682739-8.5062256-22.3152466
		c-3.2779541-7.1464233-7.5185547-13.8145752-13.0203857-19.3984375l-2.1530762-2.0003052
		c-0.7443848-0.6737061-1.4761963-1.414978-2.2310791-2.032959l-2.277832-1.7637939
		c-0.7692871-0.5806274-1.4824219-1.2116089-2.3328857-1.7231445c-1.6623535-1.0427246-3.2312012-2.2268677-4.9891357-3.1277466
		l-2.5793457-1.4383545c-0.8619385-0.4771118-1.772583-0.8711548-2.65625-1.3119507
		c-7.1184082-3.4583111-14.7055664-6.0122662-22.2003174-8.906004c-7.4832764-2.8844604-14.9051514-6.2143555-21.4986572-10.7825317
		c-1.6643066-1.1098022-3.1832275-2.4208374-4.770752-3.616333c-1.5178223-1.2835083-2.9287109-2.6838379-4.387207-4.0134888
		l-0.2692871-0.2521362c-0.1871338-0.1818848-0.1901855-0.2047729-0.2952881-0.3150024l-0.4822998-0.5374756l-0.9648438-1.0734253
		l-1.9233398-2.1411743c-0.2194824-0.2710572-0.428833-0.5570069-0.6445312-0.8338013h3.8536377l0.9047852,0.9736329
		l0.9835205,1.0568237l0.4906006,0.5285645c0.0633545,0.0640259,0.2078857,0.2313232,0.2027588,0.210083l0.2640381,0.2354736
		c1.4160156,1.2428589,2.7789307,2.5548706,4.244751,3.7525635c1.5366211,1.1113892,2.9963379,2.3355713,4.6025391,3.3657837
		c6.3583984,4.244751,13.5371094,7.3325195,20.9672852,10.0505981c7.4291992,2.7270508,15.1691895,5.1759033,22.6503906,8.6482544
		c0.9294434,0.4428711,1.8806152,0.8378906,2.7956543,1.3218384l2.7424316,1.4674683
		c1.8609619,0.9179668,3.5639648,2.1431866,5.34375,3.225462c0.8962402,0.5213013,1.7268066,1.2131958,2.5825195,1.8390503
		l2.5512695,1.9243164c0.8201904,0.6539917,1.5251465,1.3474731,2.293457,2.0189819l2.3327637,2.1001587
		c6.0070801,5.8795776,10.708252,13.015625,14.2752686,20.4650879c3.6126709,7.4520874,6.2034912,15.1807251,9.0489502,22.5350952
		c2.8360596,7.3610229,6.022583,14.4019775,10.296402,20.5639038c1.0366211,1.5537109,2.2175293,2.8999634,3.3009033,4.3596191
		c1.2059326,1.4279785,2.6072998,2.8423462,3.8955078,4.2563477l0.2463379,0.2645264
		c0.0593262,0.0670776-0.090332-0.0987549,0.0344238,0.0254517l0.1278076,0.1154175l0.515625,0.4590454l1.0241699,0.9179688
		l2.0385742,1.833313c1.4212646,1.144104,2.9068604,2.1967773,4.3425293,3.2966919
		c5.9675293,4.1326294,12.592041,7.0752563,19.3112793,9.6155396c2.1889648,0.8276367,4.3917236,1.6156006,6.5957031,2.3977661
		l6.8188477,9.6591797c-5.0441895-2.0003052-10.3502197-3.8723755-15.762085-6.0213013
		C285.7060547,134.9473724,278.6053467,131.6710052,272.1325684,127.0233612z"/>
	<path class="st1" d="M275.7275391,116.2953339c-0.7681885-0.5613403-1.4761963-1.2023315-2.1665039-1.8629761l-2.104248-1.9561157
		l-1.052124-0.9813843c-0.026001-0.019165-0.2608643-0.2667236-0.21521-0.2229614l-0.1153564-0.1279297l-0.230835-0.2562866
		l-0.4594727-0.5130005l-1.8464355-2.0564575c-1.2506104-1.2797241-2.4202881-3.0118408-3.6188965-4.5602417
		c-1.2641602-1.5672607-2.1677246-3.2494507-3.2416992-4.8852539c-4.0534668-6.6541748-6.9560699-13.9217529-9.5188141-21.1461182
		c-2.5866699-7.2279663-4.9746094-14.4602661-8.1994629-21.2615356
		c-3.1959229-6.8002319-7.3117676-13.1367188-12.5826416-18.4689941l-4.1856689-3.8814697
		c-1.4658203-1.1124268-2.8776855-2.2731915-4.3798828-3.3621807c-1.5865479-1.0032349-3.1022949-2.1109619-4.7427979-3.0352173
		c-1.6644287-0.8862915-3.2458496-1.9050903-4.9788818-2.6785889c-6.7709961-3.3652954-13.9902344-5.8952637-21.1555176-8.6050415
		c-7.1650391-2.6854248-14.3135986-5.6934814-20.7832031-9.793335c-1.5812988-1.078064-3.2487793-2.0153198-4.7115479-3.2436523
		c-1.3139648-1.0577393-2.6912842-2.027771-3.9190674-3.1688232h4.8920898
		c0.2935791,0.2175903,0.5872803,0.4351807,0.8753662,0.659729c1.4066162,1.1461182,3.0264893,2.0105591,4.550415,3.0143433
		c6.25354,3.8066406,13.1940918,6.5953979,20.3509521,9.1315918c7.1473389,2.5606079,14.5318604,4.9898071,21.6679688,8.3737793
		c1.8109131,0.7728882,3.5140381,1.8156128,5.276001,2.7196655c1.7456055,0.944519,3.3903809,2.0900879,5.0911865,3.1303101
		c1.3623047,0.9489136,2.6973877,1.9764404,4.0375977,2.9902954l22.684082,32.1326904
		c1.854248,4.5271606,3.4910889,9.0778198,5.173233,13.5167236c2.6582031,7.0985107,5.5537109,13.9185791,9.4055176,19.987854
		c1.0073242,1.4685059,1.9055176,3.0732422,3.0158691,4.3769531c1.1071777,1.3613892,1.9940186,2.7341309,3.350708,4.0810547
		l1.8817139,2.0231323l0.8474121,0.9039307l0.9772949,0.873291l1.9440918,1.7439575
		c0.6383057,0.5910645,1.2880859,1.1633911,2.0021973,1.6593018c3.458252,2.7401733,7.1879883,5.0341187,11.0634766,7.015564
		l7.3295898,10.3825684c-1.0415039-0.4279175-2.0847168-0.8643188-3.130127-1.3218994
		C288.239624,124.7584686,281.6202393,121.1406097,275.7275391,116.2953339z"/>
	<path class="st1" d="M181.7438812,0.556261c-0.1911621-0.1061401-0.3762207-0.2207031-0.5662842-0.3284912h7.1916504
		c4.6265869,2.0963745,9.4758301,3.8734131,14.4031982,5.6104736c3.6695557,1.2970581,7.3929443,2.5943604,11.1008301,4.0287476
		l4.2770996,6.0585938c-5.3803711-2.5108032-11.0028076-4.5786133-16.6181641-6.6826172
		C194.7891693,6.7203236,188.0253754,4.0765247,181.7438812,0.556261z"/>
	<path class="st1" d="M278.7321777,103.6691132l-0.2463379-0.2304077c0.0424805,0.0499268-0.1976318-0.1969604-0.2111816-0.2162476
		l-0.1070557-0.1200562l-0.4304199-0.4797974l-1.7247314-1.9243164c-0.5737305-0.6585693-1.1612549-1.2512207-1.7258301-1.9685669
		l-1.6810303-2.2247314l-1.6706543-2.2399292l-1.4576416-2.3121338l-1.4584961-2.3204956l-1.2912598-2.4118652
		c-1.3356934-2.4909058-2.5303955-5.045166-3.6350098-7.6330566l19.4935303,27.6133423
		c-0.9769287-0.8427124-1.9394531-1.7060547-2.8682861-2.6133423L278.7321777,103.6691132z"/>
</g>
</svg>
