<?xml version="1.0" encoding="utf-8"?>
<!-- Generator: Adobe Illustrator 20.1.0, SVG Export Plug-In . SVG Version: 6.00 Build 0)  -->
<svg version="1.1" id="Слой_1" xmlns="http://www.w3.org/2000/svg" xmlns:xlink="http://www.w3.org/1999/xlink" x="0px" y="0px"
	 width="356.9038086px" height="212.7020569px" viewBox="0 0 356.9038086 212.7020569"
	 style="enable-background:new 0 0 356.9038086 212.7020569;" xml:space="preserve">
<style type="text/css">
	.st0{fill:none;}
	.st1{fill:#FFFFFF;}
</style>
<g>
	<polygon class="st0" points="151.8190918,212.7020569 356.9038086,212.7020569 205.0847015,0 0,0 	"/>
</g>
<g>
	<path class="st0" d="M73.7394333,199.7348938c0.0488281,0.0410156,0.0983887,0.0799561,0.1474609,0.1205444
		c-0.0217285-0.0023804-0.0441895-0.00354-0.0654297-0.0056763
		C73.7992477,199.8066101,73.7648239,199.7754211,73.7394333,199.7348938z"/>
	<path class="st1" d="M11.3755426,16.5468502l10.2347403,14.4829102c0.5422363,0.0799561,1.0847168,0.159729,1.6239014,0.2365723
		c8.2999268,1.1826153,16.1409912,2.2995586,21.1893311,7.612608c3.2263184,3.3948975,5.3552246,7.5854492,7.3162842,12.0996094
		c-6.4844971-2.3467407-13.128418-4.5454712-20.0236816-5.6482544l2.9273682,4.142334
		c6.4650879,1.3794556,12.7827148,3.637085,18.9641113,5.9139404c0.6242676,1.4952393,1.2460938,2.9902344,1.9057617,4.4552612
		c1.0096436,2.2407227,2.1184082,4.4224281,3.2927246,6.5625648c-4.4482422,0.4794312-8.99646-0.0498657-13.239502-1.4747314
		l3.1621094,4.4745483c2.2836914,0.4712524,4.6123047,0.7169189,6.9433594,0.7138672
		c-1.7298584,0.7014771-3.5427246,1.2011719-5.3850098,1.491333l2.2275391,3.1522827
		c3.1844482-0.7039185,6.2491455-1.972229,8.9782715-3.7419434c3.7485352,5.9863281,8.1704102,11.5238037,13.2226562,16.5477295
		c3.138916,3.1189575,6.5429688,6.0562744,9.8347168,8.8985596c6.0505371,5.2227783,11.8018799,10.2229004,16.1513672,16.2873535
		c-4.3615723-3.6893311-9.15625-7.0214233-14.626709-9.0938721c-3.1549072-1.1951904-6.432373-1.9240723-9.6956787-2.5154419
		c-0.1524658-0.1625366-0.3360596-0.3005371-0.5516357-0.3985596c-5.046875-2.2888184-9.1494141-6.541748-11.2553711-11.6663208
		l-0.3845215-0.9725342c-0.5258789-1.364624-1.1236572-2.9108276-2.2253418-4.1987915
		c-0.6289062-0.7374268-1.7297363-0.8214722-2.4685059-0.1914673c-0.1448975,0.1240234-0.2570801,0.2702637-0.3508301,0.4249268
		l14.1397705,20.0087891c4.0290527,0.661377,7.8685303,1.3861694,11.5509033,2.7818604
		c8.3006592,3.1424561,15.1816406,9.5986328,21.2814941,15.5900879c0.1350098,0.2982178,0.27771,0.5981445,0.411499,0.8942871
		c1.4876709,3.2980957,3.0227051,6.6632004,5.0977783,9.7069626c-0.010376-0.0037231-0.0205078-0.0074463-0.0307617-0.0111694
		c-7.4527588-2.8153687-15.0593262-5.679985-22.8891602-7.1392136l4.0131836,5.6791916
		c5.8117676,1.5136719,11.5661621,3.685791,17.2250977,5.8239746c2.2976074,0.868042,4.5877686,1.7338257,6.8734131,2.553894
		c0.5611572,0.2033081,1.1444092,0.1561279,1.6591797-0.0531006c2.2904053,1.5669556,4.7393799,2.8445435,7.1485596,4.0662842
		c0.7105713,0.3599854,1.4194336,0.7186279,2.1210938,1.0853882c2.6914139,1.4055786,5.3015213,2.9702759,7.8483963,4.6340942
		c-5.4468994,1.5859375-11.2668533,2.8911743-16.8862381,2.3026733c-6.0524902-0.6307983-11.9118652-3.5375977-16.0797119-7.9723511
		c-0.4439697-0.4730225-1.0374756-0.71875-1.637207-0.7346802l7.4915771,10.6010742
		c3.0751953,1.4456177,6.3811035,2.3961792,9.7399902,2.7470703c1.1968994,0.1245117,2.388916,0.1771851,3.5754395,0.1695557
		c6.5378494-0.0419922,12.8996658-1.9171143,18.6793289-3.7138672c6.6593018,4.9719238,12.6578369,10.8255615,17.7867432,17.3389893
		c0.6726074,3.0683594,1.9281006,6.0654907,3.0507812,9.022522c1.7109375,4.5058594,3.1000977,9.168396,4.0657959,13.9001465
		c-5.0091553-6.2694702-12.012085-10.6174927-19.1711426-13.2905884c0.2125244-4.6540527-0.7399902-9.310791-2.7913818-13.5039673
		c-0.4228516-0.866394-1.4707031-1.2272949-2.34021-0.8025513c-0.8676758,0.4247437-1.2276611,1.4725342-0.8028564,2.3401489
		c1.6464844,3.3637695,2.4412842,7.0688477,2.425293,10.7987671c-2.3248291-0.6951294-4.6340332-1.2342529-6.8586426-1.5977173
		c-1.4274902-0.2334595-2.8637695-0.420166-4.3000488-0.605835c-2.7657471-0.3587036-5.3938065-0.7206421-7.924324-1.3859253
		l3.9121094,5.5360718c1.1441727,0.1727295,2.2851639,0.3302612,3.4108963,0.4760132
		c1.3859863,0.1801147,2.7720947,0.3591919,4.1474609,0.5838623c11.2329102,1.8353882,24.7373047,8.1139526,30.2972412,20.241333
		c-4.2142334-2.539978-8.8699951-3.9035645-12.5362549-4.7771606c-5.0253906-1.1987915-10.1369629-1.9708252-15.2805176-2.3184204
		l3.5546875,5.0301514c3.5786133,0.3890381,7.1340332,0.9884644,10.6433105,1.8262329
		c6.9038086,1.6450806,11.7263184,3.9408569,14.9758301,7.119873c-0.0495605,1.1893921-0.1431885,2.3773804-0.2653809,3.5639648
		h13.6496582c0.0665283-0.0184937,0.1330566-0.0369873,0.1994629-0.055481
		c2.7141113-0.7549438,5.4724121-1.5289307,7.8525391-3.0352173c3.0080566-3.4926147,5.8703613-5.8937378,8.1362305-10.1530151
		c1.0352783-1.9463501,1.9983521-3.9411621,3.0604858-5.873291c0.515686-0.5667725,1.0262451-1.1503906,1.5524902-1.6900024
		c1.8485718-1.8945923,3.8516235-3.6254883,5.9837036-5.2333374c9.093811-3.0864258,21.029541-2.8868408,28.5279541,0.5236816
		c1.0144653,0.4594727,2.1594238,1.0361938,2.9730835,1.8319702c0.9423218,0.9199829,1.6164551,2.2834473,2.2670288,3.6004639
		l5.4539185,11.0270996c1.5117798,3.0500488,3.3949585,6.7950439,6.8664551,9.0571289h3.2426758
		c0.1581421-0.1491089,0.3005981-0.3187256,0.4156494-0.5159302c0.6514282-1.1114502,0.2775269-2.5395508-0.8337402-3.1907349
		c-2.3916626-1.4026489-3.8508911-4.074646-5.510437-7.4205933l-4.6723633-9.4494019
		c5.7973633,0.4598999,12.0497437,2.803894,18.6347656,7.005188c3.8430786,2.4537354,7.5519409,5.3311157,11.1369629,8.114502
		c2.3426514,1.8175659,4.7584839,3.6836548,7.2312622,5.4569702H293.09021
		c-0.2979126-0.1923218-0.6383057-0.3273315-1.0151367-0.3667603c-2.0083008-0.2102661-3.9483032-1.4700317-5.7628174-2.7421875
		c-2.7253418-1.9118042-5.4269409-4.0075073-8.0393066-6.0339966c-3.6700439-2.8478394-7.4637451-5.7919312-11.4869995-8.3607178
		c-0.2399902-0.1528931-0.4764404-0.2807007-0.7155762-0.4291382c2.9902954-0.180603,6.003479-0.0221558,8.9285278,0.574585
		c1.4783936,0.3014526,2.9362793,0.6998291,4.3922729,1.097168c1.5177002,0.4127808,3.0352173,0.8255615,4.5750732,1.1413574
		c2.5932007,0.531189,5.2285767,0.789917,7.8666382,0.7730103c1.1502686-0.0074463,2.2980957-0.06604,3.4476318-0.1782837
		c0.9605103-0.09375,1.6638184-0.9502563,1.571106-1.9110107c-0.0930786-0.9619141-0.9178467-1.6787109-1.9126587-1.5721436
		c-3.4282837,0.3376465-6.8877563,0.1558838-10.2705688-0.539978c-1.4665527-0.3002319-2.9111938-0.6953735-4.3580933-1.0891724
		c-1.5288696-0.4173584-3.0601196-0.8323364-4.6136475-1.149353c-4.8373413-0.9869385-9.894165-0.9516602-14.7459106-0.0114746
		c-2.3081665-1.1413574-4.5841064-2.0673828-6.8233032-2.7758789c6.6962891-1.2001343,13.2613525-3.2471924,19.3823242-6.0976562
		c1.1672363-0.5440063,1.6734619-1.9310913,1.1303711-3.0997925c-0.5426636-1.1652222-1.9266357-1.6790161-3.0985107-1.1293335
		c-8.8782349,4.133667-18.7426147,6.5046997-28.5292358,6.859375c-0.3944092,0.0143433-0.7441406,0.1494751-1.0631714,0.3335571
		c-0.09729-0.1029053-0.1758423-0.2146606-0.2783813-0.3148193c-1.3299561-1.2988892-2.9206543-2.114563-4.3028564-2.741272
		c-5.5219116-2.5100098-12.3928223-3.3374634-18.8954468-3.0270996c2.1600952-0.9587402,4.4229736-1.836731,6.81073-2.6256104
		c3.2720947-0.1885376,7.6134644-2.0536499,11.1281128-3.562561c1.0856934-0.4660034,2.0830688-0.8962402,2.9193115-1.2159424
		c3.6200562-1.3878784,7.1123047-2.4330444,10.4909668-3.4447632c0.1467285-0.0439453,0.2909546-0.0877075,0.4375-0.1314697
		c5.1188965,2.7243652,11.1972656,4.3117065,18.1055908,4.6959229c6.0821533,0.3378906,11.8740845,0.1491699,17.6622925-0.5770264
		c2.8721924,2.3825684,6.3725586,5.0787964,10.6287842,5.9228516c1.2044067,0.2392578,2.4077148,0.3182373,3.5582275,0.3108521
		c1.0568237-0.0067749,2.0701294-0.0863037,3.003418-0.178772c7.8572388-0.7788086,15.614563-3.2006836,22.5490723-6.9889526
		l-2.7078857-3.8358154c-6.2675171,3.3422852-13.2407837,5.4823608-20.3016357,6.1828003
		c-1.6026001,0.1583862-3.4765625,0.2763672-5.1918945-0.0657349c-2.2183838-0.4405518-4.282959-1.6560669-6.1995239-3.0718994
		c2.055481-1.0905151,4.4853516-1.6573486,7.0582886-2.21521c4.1678467-0.9039307,8.4763794-1.8372192,11.3560181-5.352417
		c2.2796631-2.7825317,2.8565674-6.3692017,3.2954102-9.6193237l-2.907959-4.1192017
		c-0.1315308,0.654541-0.2363281,1.2896118-0.3204346,1.8820801l-0.1651001,1.2287598
		c-0.4280396,3.2092285-0.8323364,6.2416382-2.6091309,8.4102783c-2.1062622,2.5706787-5.6436157,3.3382568-9.390564,4.1494141
		c-3.1846924,0.6908569-6.4642334,1.4235229-9.2487793,3.2920532c-0.0664062-0.055481-0.1351318-0.1121826-0.2008667-0.1672363
		c-0.5039062-0.4203491-1.1679077-0.6052856-1.8122559-0.5214233c-5.8356323,0.7973633-11.6568604,1.019165-17.7985229,0.6760254
		c-4.2340088-0.2354126-8.0628662-1.0043945-11.5267334-2.1976318c3.7440796-1.2927246,7.4653931-2.8428955,11.3317871-5.1261597
		c1.9854736-1.1734009,4.0288086-2.2800903,6.0739746-3.388916c6.4629517-3.5040894,13.1465454-7.1271362,18.1417847-12.8772583
		c2.1002808-2.4193726,3.8019409-5.1182251,5.3728638-7.8466187c1.0131226-0.1132812,2.0203857-0.2685547,3.0244141-0.4428101
		l-4.5263672-6.4117432c-0.2442017,0.4378052-0.4925537,0.8759766-0.7338867,1.3125
		c-2.0760498,3.7596436-4.0372314,7.3098755-6.6603394,10.3294067c-1.5252686,1.7564697-3.2481689,3.2842407-5.0978394,4.687561
		c-1.2150269-1.5371704-2.3423462-3.1422119-3.3827515-4.8112793c-0.0009155-0.0141602,0.0061646-0.0264282,0.005249-0.0405884
		c-0.3577881-4.9558105-0.7303467-10.0801392,0.8230591-14.7373581l0.225769-0.6541138
		c0.550293-1.5789185,1.2369995-3.5437012,0.5930786-5.5530396c-0.2926025-0.9221191-1.2801514-1.4328003-2.1986084-1.1330566
		c-0.9207764,0.295166-1.4291992,1.2791138-1.1340332,2.1999512c0.2858887,0.8946533-0.1279907,2.0784302-0.5639648,3.3317261
		l-0.2416992,0.7021484c-0.9422607,2.8245773-1.258606,5.7619553-1.3013916,8.6537399
		c-2.9213867-6.7491455-4.5535278-14.0725021-4.5776367-21.3649216c-0.0043335-0.9658813-0.788147-1.7468262-1.7561646-1.7440186
		l-0.0046997,0.000061c-0.963562,0.0061646-1.7423706,0.7902222-1.7380981,1.7548828
		c0.0422363,12.6664429,4.5633545,25.4354172,12.3917236,35.4128342c-2.7861328,1.8187866-5.791748,3.4541626-8.8848877,5.1308594
		c-2.095459,1.135498-4.1885986,2.270813-6.2218018,3.4732056c-5.8550415,3.4580078-11.5462646,5.1611328-17.5714111,6.9642334
		c-1.8905029,0.565918-3.821167,1.1491699-5.7961426,1.7921753c1.0010986-2.34375,1.9238892-4.8505249,2.5245972-7.4868164
		c1.074585-4.7258301,0.9881592-9.2780151-0.2553101-13.1643677c-0.2953491-0.9205933-1.282959-1.4360962-2.1986084-1.1338501
		c-0.9210205,0.2940674-1.4296265,1.2791138-1.1345215,2.1986694c1.0533447,3.2918091,1.1127319,7.2072754,0.175354,11.3220215
		c-0.8023682,3.5258789-2.2474365,6.8928833-3.670166,9.8597412c-0.1574097,0.0592041-0.3100586,0.1102295-0.4680786,0.1707153
		c-0.6952515,0.2662354-1.5151367,0.6132812-2.3814087,0.9835815c0.0234985-5.4637451-1.0509033-10.9107666-3.2052002-15.9451294
		c-0.3790894-0.8892212-1.4136963-1.3007202-2.295166-0.9204102c-0.8905029,0.3793335-1.3007202,1.4082642-0.9213867,2.2966309
		c2.1635132,5.0562744,3.1456909,10.5692749,2.894104,16.0570679c-2.5252075,1.0287476-5.2057495,1.9832764-6.9264526,2.0133057
		c-0.2322388,0.0036011-0.4621582,0.0426636-0.6825562,0.1147461c-10.9093628,3.5567017-19.5940552,8.7529907-26.5529785,15.8858643
		c-1.0662842,1.0924072-2.1066284,2.2550659-3.1469116,3.4224243c-2.8163452,3.1547241-5.5169067,6.1462402-8.7713013,7.7666016
		c0.6588135-2.649353,1.034668-5.3776245,1.3929443-8.0664062c0.5078125-3.8201904,1.010498-7.4285278,2.2648926-10.7191772
		c6.3756104-6.397583,19.3204346-15.4976196,27.5266113-15.2998047c1.3258667,0.0404053,2.3513794-0.9981079,2.3770142-2.2865601
		c0.0236206-1.2884521-0.9993896-2.352417-2.2884521-2.3772583c-6.4905396-0.1000366-14.3843384,3.8554077-21.0194092,8.4727173
		c1.5272217-2.6069946,2.8392944-5.364563,3.3959961-8.4800415c0.3325195-1.8621216,0.3577271-3.7089233,0.2595215-5.5342407
		c0.807373,0.1407471,1.6270752,0.2348633,2.4672852,0.2294312c3.3284302-0.0213623,6.8520508-1.1798096,10.0861206-3.3748779
		c3.4997559-2.3781738,6.222229-5.5415649,8.8543701-8.600769l0.5448608-0.6334229
		c2.5120239-2.9108276,5.3205566-6.0403442,8.4950562-8.7744141c0.2825317,0.1422119,0.5946655,0.2349243,0.9312134,0.2509155
		c0.7543945,0.0360718,1.5084229,0.0506592,2.2625732,0.0457764c5.7401123-0.0369263,11.4845581-1.2401733,16.7435913-3.5212402
		c0.5724487-0.2485962,1.1447144-0.5109253,1.7172241-0.7731934c2.1600952-0.9933472,4.2019653-1.9302368,6.2628174-2.0506592
		c1.286499-0.0742798,2.2683716-1.1775436,2.1938477-2.4640427c-0.076416-1.286499-1.1969604-2.2977905-2.465332-2.1928101
		c-2.937439,0.1705933-5.4790649,1.3382568-7.9390259,2.4681396c-0.5405884,0.2483521-1.0834351,0.4967651-1.6240845,0.7324829
		c-3.6758423,1.5935593-7.6113281,2.5835495-11.6085205,2.957695c1.7084351-0.9233398,3.5010986-1.6841431,5.3972168-2.4882126
		c2.3421021-0.9911499,4.7616577-2.0171509,7.046875-3.3895264c5.4553833-3.277771,9.5632324-8.1668091,13.5351562-12.8952637
		c3.795166-4.515686,7.4210815-8.8032227,11.9983521-11.5944824l-2.6837158-3.8015747
		c-1.236145,0.7633057-2.4136963,1.5996704-3.5220947,2.5187378c-1.3390503-3.5826416-2.1943359-7.3359985-2.5635986-11.1392822
		l-4.7893677-6.7843628c-0.3907471,7.2838135,0.8717041,14.6212158,3.6950073,21.3449097
		c-2.0036621,2.0652466-3.8703003,4.2713013-5.7054443,6.454834c-3.3132935,3.9441528-6.4781494,7.6923828-10.2926025,10.4981079
		c2.0875854-8.6883545,2.8251343-17.7974854,2.0924683-26.6560059c-0.1061401-1.2839966-1.2191162-2.2381592-2.5170288-2.1329956
		c-1.2839966,0.1061401-2.2380981,1.2330933-2.131958,2.5162354c0.8148193,9.8602295-0.281311,20.0513306-3.1486206,29.5270386
		c-0.9241943,0.418335-1.8609619,0.8256226-2.8337402,1.2374878c-1.9358521,0.8201904-3.9373779,1.6677856-5.8625488,2.7134399
		c-2.9056396,1.5758667-5.5204468,3.5580978-7.9229126,5.6999435c-1.2648926-6.0396042-1.7502441-12.2004318-1.3412476-18.3748093
		c0.0852051-1.2852173-0.8878784-2.3966064-2.1733398-2.4815674c-1.2532959-0.0726929-2.3973999,0.8889771-2.4802856,2.1743774
		c-0.5020752,7.5761108,0.2009888,15.1428223,2.053833,22.5044479c-1.5413818,1.6154175-2.9940186,3.2484741-4.3521118,4.8217773
		l-0.5496216,0.6391602c-2.5457153,2.9584961-4.9519653,5.7531738-7.9388428,7.7838135
		c-3.3569336,2.2781372-6.9943848,3.0942383-9.986084,2.2420654c-0.1322632-0.0383911-0.2633667-0.0181274-0.3963623-0.0322876
		c-0.3927612-3.3713989-0.7450562-6.5614014,0.0502319-9.5094604c0.7919922-2.9390259,2.6889038-5.5233154,4.696228-8.2595825
		c0.7860718-1.0722656,1.5718994-2.1434326,2.2983398-3.2414551c3.2714233-4.9520187,5.4465942-10.678093,6.2905273-16.5597458
		c0.1065063-0.7592163,0.1947632-1.5719604,0.2825928-2.4063721c0.425354-4.0281372,0.9043579-7.1542969,2.8320923-7.7352295
		c8.3104858-2.5044556,16.0081787-7.012146,22.2616577-13.0344849c1.7160034-1.6500854,3.3222046-3.4144897,4.8760376-5.121582
		c2.5358887-2.7828979,4.9313965-5.4113159,7.7422485-7.5821533c1.6387939-1.2623291,3.4177246-2.3740845,5.3009033-3.5501709
		c0.1281738-0.0800781,0.2564697-0.1643066,0.3847656-0.244812l-2.6940308-3.8161621
		c-0.055481,0.034668-0.1094971,0.0690918-0.1651001,0.1038208c-1.8942871,1.1854858-3.8549805,2.4100342-5.6751099,3.8135986
		c-0.199585,0.1541748-0.3815918,0.3253784-0.5773926,0.4835815c-2.4003296-3.7944946-3.8383179-8.2411499-4.0800781-12.7083778
		c-0.0696411-1.2865601-1.2283325-2.2258301-2.4561157-2.203186c-1.2868042,0.0698853-2.2728271,1.1697998-2.2030029,2.4563599
		c0.2991943,5.5152626,2.1593628,10.9957924,5.2384033,15.5985146c-1.4846802,1.47229-2.8907471,3.0007935-4.2640381,4.506958
		c-1.5020752,1.651062-3.0584717,3.3581543-4.6635742,4.9039917c-4.4337158,4.2689819-9.6651611,7.6928101-15.3302002,10.0903931
		c-1.5258789-9.9510498,0.965271-20.4714966,6.9251099-28.5921631c0.0640869-0.0390015,0.1350708-0.0567627,0.196167-0.1027222
		c0.4033203-0.3016968,0.640686-0.7213135,0.7835693-1.1669312c0.7608032-0.9619751,1.5472412-1.9135742,2.3796387-2.8968544
		c1.795105-2.1176758,3.651062-4.3074951,5.1663818-6.789978c1.65802-2.711853,2.8455811-5.7406616,3.5810547-8.9493408
		l-3.8320923-5.4282837c-0.34375,4.3591919-1.6012573,8.4638672-3.7287598,11.9439697
		c-1.3300171,2.1749878-2.9893799,4.1333618-4.7460938,6.2075806c-0.244751,0.2892456-0.4932251,0.5906372-0.7406616,0.8843994
		c-0.6347046-1.5618286-1.0084229-3.2290649-1.0098267-4.9202271c-0.0003052-1.1287842,0.1426392-2.2891235,0.2940063-3.5180054
		c0.1170044-0.9301758,0.2293701-1.8603516,0.2896118-2.7948608c0.3345337-5.3452759-1.1260986-10.7347412-4.1138916-15.1758423
		c-0.7175293-1.0684814-2.1635742-1.3563843-3.2364502-0.6341553c-1.0684814,0.7185669-1.3527832,2.1681519-0.6331177,3.2376709
		c2.3596802,3.5117188,3.5330811,7.755249,3.331604,11.9829102c-2.5064087-2.873291-6.0332031-4.8950806-9.7930298-5.4307861
		c-0.9352417-0.1454468-1.842041,0.5280151-1.9794922,1.4855957c-0.012146,0.0863647,0.0145264,0.1657104,0.0146484,0.2503052
		c-0.4619751-1.5146484-0.8536377-3.0377197-1.1265259-4.5693359c-0.0426636-0.2391357-0.0592041-0.4816284-0.0968018-0.7212524
		c0.0784302-0.0397339,0.1611328-0.0651245,0.2348633-0.1179199c4.2721558-3.046814,6.7799072-8.3983154,6.3908081-13.6328106
		c-0.0720215-0.9654541-0.9402466-1.7104492-1.8737183-1.614563c-0.9629517,0.071106-1.6865845,0.9107056-1.6143799,1.8739014
		c0.2550659,3.4420776-1.1233521,6.939024-3.5715332,9.3572369c-0.1575317-2.6240234-0.1536255-5.2946758-0.1265259-8.0669537
		c0.0499878-4.9882202,0.1010132-10.145813-1.0181885-15.2096558c-0.2789307-1.2567139-1.5075684-2.0563354-2.7813721-1.7749634
		c-1.2579956,0.2791748-2.0518188,1.5235596-1.772644,2.7815552c0.7908325,3.5794067,0.9255981,7.2423096,0.9238892,11.0499268
		l-2.2949829-2.8355713c-0.9090576-1.1263428-1.614624-2.065979-1.7324219-3.027771
		c-0.1154175-0.958252-1.0085449-1.6404419-1.9484253-1.5240479c-0.9607544,0.1177368-1.6432495,0.9902344-1.5252686,1.9494629
		c0.249939,2.0315552,1.5407104,3.6328125,2.484436,4.802124l4.9852905,6.1589355
		c-0.0146484,3.7539043,0.0684204,7.5817242,0.7452393,11.3725567c1.0894165,6.1151733,3.6523438,11.8348389,6.1323853,17.3647461
		c2.1459961,4.7874184,4.187439,9.3987465,5.2942505,14.1095009c-1.057251-0.8766479-2.1204834-1.7330322-3.1674805-2.5654297
		c-1.5891724-1.2620239-3.2286377-2.5671997-4.7567749-3.9104004c-3.8214722-3.3674927-6.2445679-6.4408607-7.6181641-9.6692543
		c-0.5067139-1.1879883-1.8770142-1.7373657-3.060791-1.2321167c-1.1858521,0.5042114-1.7374268,1.8746948-1.2329102,3.0595093
		c1.657959,3.8938599,4.4650879,7.4978065,8.8296509,11.3436317c1.6148682,1.4213257,3.3024902,2.7624512,4.9351196,4.0606689
		c1.8135376,1.4417725,3.6911011,2.9333496,5.4072876,4.4918213c0.2911377,0.2658081,0.4541626,0.4628296,0.5393677,0.5865479
		c-0.2254639,0.9255981,0.1664429,1.8757324,0.9454346,2.425293c-1.0101929,5.1844482-1.0930176,10.5443726-0.1738281,15.7463989
		c-0.1827393,0.0574951-0.361145,0.1270142-0.5443115,0.1821899c-5.0498657,1.5211182-5.6726685,7.4116821-6.1255493,11.7120972
		c-0.0840454,0.7761841-0.163147,1.5319214-0.2636719,2.2365112c-0.7456055,5.2019043-2.6697998,10.2682495-5.5643311,14.6469727
		c-0.6837769,1.0352707-1.4268188,2.0446091-2.1672363,3.0551682c-2.1727295,2.9605103-4.4194946,6.0230103-5.4387817,9.805542
		c-1.0430908,3.8770142-0.5924072,7.7410278-0.1560669,11.4787598c0.3615112,3.0822144,0.7015381,5.9936523,0.2089844,8.7543335
		c-0.3856201,2.1647339-1.2791138,4.1879883-2.3982544,6.1925049c-1.0609131-3.2734985-2.9299316-6.2640991-4.7650146-9.1897583
		c-1.9239502-3.0641479-3.737915-5.9581299-4.6190186-9.0734253c-0.7437744-2.6411743-0.8796387-5.7258301-0.4313965-9.7084961
		c0.6313477-5.6011963,2.1022949-11.0516891,4.3746338-16.1999435c0.6553955-1.482605,1.3770752-2.956665,2.1011963-4.4329224
		c1.1306152-2.3060303,2.2641602-4.6512451,3.1861572-7.0710449c3.1312256-1.1955566,5.9849854-3.4181519,8.1405029-6.3682251
		c2.1203613-2.901123,3.5759277-6.4459839,4.3265381-10.536499c0.1759644-0.9497681-0.4539185-1.8616333-1.402832-2.0365601
		c-0.9487305-0.1751099-1.8625488,0.4526978-2.0365601,1.4049683c-0.6558838,3.5682373-1.9052734,6.6309814-3.7113037,9.104187
		c-1.1095581,1.517334-2.4472046,2.7629395-3.9028931,3.7393188c0.3422852-1.6077881,0.548584-3.2540894,0.5257568-4.9592285
		c-0.0423584-2.9633789-0.7347412-5.796814-1.6546631-8.5463257c0.1688232-0.0953979,0.3371582-0.1960449,0.4718018-0.3508911
		c1.9741821-2.2749023,3.8518677-4.6707153,5.5810547-7.1240234c1.8377075-2.6065063,4.0883179-6.5085449,2.4122314-10.2940063
		c-0.390686-0.887085-1.4272461-1.2757568-2.3065186-0.8928833c-0.8834839,0.390625-1.2825317,1.4238892-0.8916626,2.3076172
		c0.7164917,1.6228638,0.0383911,3.8679199-2.074646,6.8634644c-1.4116211,2.0025635-2.9422607,3.949585-4.5307617,5.835144
		c-0.1484375-0.3834229-0.2972412-0.7670288-0.4459229-1.1480713c-0.2288818-0.585022-0.4550781-1.1655273-0.6761475-1.7431641
		c0.3470459-0.0919189,0.6776123-0.2520142,0.9207764-0.5535889c3.2521973-4.0325317,4.5043945-9.4588013,3.3513184-14.5133667
		c-0.2158203-0.9428101-1.1513672-1.5291138-2.095459-1.3167725c-0.9415283,0.2155151-1.5324707,1.1534424-1.3166504,2.0949707
		c0.8334961,3.647644,0.0146484,7.6749268-2.1083984,10.7576904c-0.9449463-3.0134888-1.4562988-5.9476929-0.8408203-8.8534546
		c0.2674561-1.260437-0.5375977-2.4990234-1.7971191-2.7664185c-1.2705078-0.2687988-2.5,0.539856-2.7653809,1.7979736
		c-1.2601318,5.9389648,0.8962402,11.4572144,2.9831543,16.7949829c1.574707,4.0335693,3.0639648,7.8440552,3.1186523,11.715271
		c0.0501709,3.6408691-1.1655273,7.1184082-2.7677002,10.6583252c-1.3463135-2.5765381-3.1248779-5.1922607-4.791626-7.6231079
		c-0.9204102-1.3426514-1.777832-2.5912476-2.4338379-3.6691895c-1.7316895-2.8432007-2.7277832-6.5248413-3.0476074-11.2565308
		c-0.9016113-13.3823242,3.9658203-27.2789345,13.0235596-37.1714516c0.8688965-0.9510498,0.8048096-2.4268799-0.1463623-3.2965698
		c-0.9487305-0.869812-2.4245605-0.8067017-3.2955322,0.1452026c-1.1330566,1.2381592-2.1983643,2.539856-3.2088623,3.8850098
		c-0.3388672-1.9832764-0.1634521-4.0582275,0.6241455-5.9082642c1.1533203-2.7160034,3.5108643-4.8999634,6.309082-5.8416748
		c0.9158936-0.3088379,1.4083252-1.3007202,1.0994873-2.2165527c-0.3087158-0.9163208-1.3098145-1.4030762-2.2141113-1.0997925
		c-3.7325439,1.2563477-6.8780518,4.168457-8.4152832,7.7902222c-1.4748535,3.4661255-1.4404297,7.5379028,0.0437012,11.00354
		c-1.3251953,2.1114502-2.5144043,4.3121338-3.5478516,6.5890503c-4.3596191-3.5644531-6.0300293-9.7993164-6.6628418-13.8391724
		c6.2724609-7.2887573,6.5554199-17.5083599,6.8015137-26.5303326V22.747839
		c3.5063477-2.020874,6.4902344-4.9785767,8.4284668-8.5231934c0.4638672-0.8480835,0.1542969-1.9111328-0.6940918-2.3748169
		c-0.8479004-0.4639282-1.9121094-0.1505737-2.3737793,0.6951294c-1.2624512,2.3082886-3.0566406,4.3222046-5.161377,5.9144287
		c0.4584961-6.8231812,1.8753662-13.657959,6.255249-18.0478516h-6.0461426
		c-4.0155029,6.1883545-4.8583984,14.3330688-5.0611572,21.8293457l-0.0109863,0.3850708
		c-0.1843262,6.7192993-0.401123,13.5989361-2.9108887,19.1693707c-0.3604736-4.6674805-0.7404785-9.4898682-2.3100586-14.1183453
		c-0.7081299-2.0842896-1.6318359-4.0545044-2.5258789-5.9602051c-0.9836426-2.0985107-1.914917-4.0813599-2.5478516-6.1536865
		c-0.3289795-1.0770874-0.5510254-2.1675415-0.7275391-3.2641602c4.0627441-1.2595825,7.9719238-2.9841309,11.6195068-5.1732178
		c0.8283691-0.4972534,1.09729-1.5708008,0.5994873-2.4002075c-0.4951172-0.8283691-1.5695801-1.0959473-2.4001465-0.5997314
		c-3.1992188,1.9185181-6.6154785,3.4483643-10.1594238,4.6043701c-0.0991211-2.7130127,0.1306152-5.4865112,0.5095215-8.3186035
		h-4.7043457c-0.5144043,4.1026611-0.7180176,8.2338257-0.1040039,12.3276978
		c-0.6555176-0.31073-1.3513184-0.7520142-2.111084-1.3561401c-3.5283203-2.8011475-6.1662598-6.6784058-7.5227051-10.9715576
		h-3.6408691c0.010498,0.0665894,0.0159912,0.1331787,0.0344238,0.199707
		c1.4689941,5.295105,4.6480713,10.093811,8.9506836,13.5126343c1.7976074,1.4273071,3.4846191,2.2318115,5.1195068,2.492981
		c0.0301514,0.1029663,0.0450439,0.2068481,0.0766602,0.3098145c0.7304688,2.3895874,1.7745361,4.6176758,2.7858887,6.7719116
		c0.8778076,1.8713989,1.7069092,3.6382446,2.3294678,5.4760742c1.3908691,4.1018047,1.7290039,8.4553204,2.0839844,13.0650005
		c0.0214844,0.2758179,0.0473633,0.5599976,0.0693359,0.8378906c-6.1459961-4.3775635-10.529541-11.3010235-11.7069092-18.7494488
		c-0.1990967-1.2719727-1.3919678-2.1471558-2.6662598-1.9396362c-1.2745361,0.2006226-2.1414795,1.3952637-1.9395752,2.6685791
		c1.5698242,9.9418316,8.0429688,19.0852032,16.8942871,23.8756695c0.0146484,0.1079102,0.0216064,0.2165527,0.0368652,0.324646
		c0.8461914,6.0916138,3.2558594,13.9743042,9.5981445,18.298893c-2.5083008,7.0519409-3.6308594,14.5980835-3.1313477,22.0023804
		c0.3701172,5.4979248,1.5874023,9.8709106,3.717041,13.3676147c0.6931152,1.1390991,1.5966797,2.4614258,2.5720215,3.8811646
		c2.3432617,3.4175415,5.1953125,7.6052856,5.9274902,10.6838379c-0.4587402,0.949707-0.9304199,1.8983765-1.350708,2.8514404
		c-2.4627686,5.5821533-4.0585938,11.4901657-4.7435303,17.5623093c-0.1066895,0.9474487-0.1643066,1.8310547-0.2113037,2.7027588
		c-0.5916748-0.6313477-1.1524658-1.2922363-1.7816162-1.8859863c-0.7492676-0.7069702-1.526001-1.3864746-2.300293-2.0650024
		c-1.282959-1.1228638-2.4971924-2.1845703-3.5686035-3.3587646c-1.8214111-1.989563-2.8479004-3.9523926-3.0537109-5.836113
		c-0.1425781-1.2793579-1.3034668-2.2241211-2.5739746-2.0631714c-1.2813721,0.1402588-2.2055664,1.2931519-2.0651855,2.5737305
		c0.3190918,2.8888474,1.7474365,5.7386398,4.2485352,8.4731369c1.2479248,1.3656616,2.6176758,2.5641479,3.9395752,3.7219849
		c0.7333984,0.6399536,1.4639893,1.2800903,2.1699219,1.9464111c2.0994873,1.9820557,3.9724121,4.2071533,5.5689697,6.6149902
		c0.0234375,0.0355225,0.0561523,0.0601807,0.0810547,0.0939941c0.0478516,0.1886597,0.0734863,0.3916626,0.1262207,0.5778198
		c1.0603027,3.762207,3.1413574,7.0792847,5.1550293,10.2863159c2.6333008,4.1973877,5.1212158,8.1624146,4.9190674,12.5124512
		c-0.0036621,0.0861206,0.0328369,0.1609497,0.0380859,0.2451172c-0.7160645,1.1340332-1.4049072,2.2999268-2.0452881,3.5005493
		c-3.1871338,4.2728271-5.8120117,13.8423462-5.7380371,18.2049561c0.0117188,0.6928711,0.038208,1.477417-0.4516602,1.9678955
		c-1.135498,1.1365356-2.8039551-0.6998291-3.3225098-2.2203979c-1.3457031-3.9447632-2.6306152-7.923645-4.3515625-11.7162476
		c-1.2387695-8.9989014-0.5441895-18.3419189,2.0294189-27.0498047c0.3654785-1.2349243-0.3398438-2.5334473-1.574585-2.8980103
		c-1.2416992-0.3654175-2.5334473,0.3411255-2.8990479,1.5758667c-1.8354492,6.2042236-2.7658691,12.7091064-2.8060303,19.2072754
		c-1.2841797-1.9019165-2.6174316-3.7739258-3.9598389-5.6332397c-0.3048096-0.421875-0.6221924-0.84552-0.9666748-1.2386475
		c-0.8029785-5.2183228-2.2319336-10.3843994-3.6499023-15.3912354c-0.2879639-1.0174561-0.5714111-2.0258789-0.8508301-3.0324097
		c0.0227051-0.3651123-0.0793457-0.7183838-0.2839355-1.036438c-2.244873-8.2067261-3.927002-16.076355-2.2597656-23.954216
		c0.0631104-0.2993164,0.1486816-0.5946045,0.220459-0.8924561c7.5159912-3.3060303,13.3881836-9.8678589,15.7585449-17.7422485
		c0.3701172-1.2337036-0.3282471-2.5343628-1.5632324-2.9057007c-1.2347412-0.3770142-2.5332031,0.3295898-2.9058838,1.56073
		c-1.5875244,5.2797241-5.225708,9.9703979-9.8648682,13.0159912c0.0987549-0.5826416,0.1824951-1.1715698,0.2329102-1.7734985
		c0.2729492-3.2683105-0.3308105-6.3989258-0.9152832-9.4273682c-0.2022705-1.0477295-0.4050293-2.0942383-0.5665283-3.1433105
		c-0.5345459-3.4491577-0.6270752-7.0081177-0.5377197-10.5775757c0.0625-0.0487061,0.1363525-0.0734253,0.1931152-0.1315918
		l6.0603027-6.2421265c1.6905518-1.7410889,3.607666-3.7148438,4.8376465-6.1511841
		c1.4916992-2.9481201,1.6651611-6.081665,0.4802246-8.5980225c-0.4133301-0.8765869-1.4567871-1.244751-2.3288574-0.8370972
		c-0.8745117,0.4121704-1.248291,1.4545288-0.8369141,2.3290405c0.713501,1.5114746,0.5490723,3.5775146-0.4362793,5.5271606
		c-0.9919434,1.9608154-2.6369629,3.6547852-4.2282715,5.2926636l-3.5097656,3.6150513
		c0.0639648-1.0551758,0.1312256-2.1080322,0.2009277-3.1539307c0.5041504-7.630127,1.0273438-15.5202637-0.8149414-23.210392
		c-0.2995605-1.2545166-1.557373-2.027771-2.8105469-1.725647c-1.2531738,0.3006592-2.0267334,1.5586548-1.7248535,2.8118896
		c1.6761475,7.0022011,1.1986084,14.1969643,0.6940918,21.8157387c-0.2729492,4.1057739-0.5493164,8.2997437-0.4619141,12.5015259
		c-1.5638428-2.6595459-2.6387939-5.6080322-3.112793-8.6548462c-0.1472168-0.9559326-1.0539551-1.6220093-1.9980469-1.4587402
		c-0.9558105,0.1484985-1.6083984,1.043335-1.4609375,1.99823c0.8459473,5.4212036,3.3510742,10.5674438,7.0623779,14.6096802
		c0.0426025,0.3182373,0.0731201,0.6373901,0.1221924,0.9554443c0.1713867,1.1049194,0.3835449,2.208252,0.595459,3.3118896
		c0.5490723,2.8427734,1.067627,5.5275879,0.8475342,8.1567993c-0.1394043,1.6752319-0.579834,3.3533936-1.0491943,5.1311646
		c-0.2646484,1.005188-0.5270996,2.0114136-0.7414551,3.0266113c-0.2978516,1.4070435-0.4853516,2.8108521-0.6079102,4.2119141
		c-4.6494141-2.5253296-7.7668457-5.1204224-9.8410645-8.1456299c3.2080078-5.3496094,4.8063965-11.6778564,4.4814453-17.9074097
		c-0.0517578-0.9656372-0.8970947-1.7006226-1.8376465-1.6557617c-0.9655762,0.0494385-1.7072754,0.8733521-1.6557617,1.8377075
		c0.2512207,4.8114014-0.7926025,9.6882935-2.9361572,14.0056763c-1.7652588-4.5192261-1.9239502-9.6695557-2.0617676-15.0784912
		c-0.1187744-4.5950317-0.2404785-9.3475342-1.4063721-13.9064941c-0.3066406-1.1930542-0.6850586-2.3480835-1.074707-3.4863892
		c0.0256348-0.0177002,0.0560303-0.0235596,0.0817871-0.0425415c6.0826416-4.5509033,11.1629639-10.5154419,14.6943359-17.2470093
		c0.5981445-1.1419106,0.1585693-2.5513954-0.9841309-3.1499062c-1.140625-0.5974121-2.5501709-0.1557007-3.1486816,0.982605
		c-2.9855957,5.6935463-7.2000732,10.7680702-12.2233887,14.779911c-0.4058838-1.3156128-0.7414551-2.6173096-0.9083252-3.9361572
		c-0.4534912-3.5543213,0.2523193-7.1842651,0.9975586-11.0287514c0.1544189-0.7857666,0.3065186-1.5716553,0.4472656-2.3549805
		c2.022583-11.1209717,2.0010986-22.3773193-0.012085-33.4852295c0.0241699-0.0130005,0.0507812-0.0176392,0.074585-0.0319214
		c3.8123779-2.2901001,6.3071289-6.47052,6.5133057-10.9116821c0.0438232-0.9649658-0.7019043-1.7836914-1.6657715-1.8287964
		c-0.954834-0.0463867-1.7836914,0.699585-1.829834,1.666687c-0.1317139,2.8383179-1.6032715,5.6246948-3.8375244,7.3927002
		c-0.8326416-3.7567139-1.8442383-7.4337769-2.887085-10.9695435c3.4289551-2.8296509,4.9886475-6.93927,6.3300781-11.0634155
		h-4.9226074c-0.7868652,2.2629395-1.6713867,4.34552-2.9543533,5.9839478
		c-0.6115723-1.9389648-1.2770996-3.9394531-1.9931641-5.9839478h-4.9542236
		c1.2521973,3.4760742,2.3599854,6.8338623,3.30896,9.9911499c0.5537109,1.8411865,1.1081543,3.7391357,1.6469727,5.6584473
		c-3.5847168-1.5231934-7.0506592-3.2874146-10.4405518-5.1853027c0.067749-0.2090454,0.100708-0.4328613,0.083252-0.6654053
		l-0.2940674-3.9299927c-0.0700684-0.9655151-0.9152832-1.7085571-1.8736572-1.614624
		c-0.9631348,0.071167-1.6868896,0.9094849-1.6143799,1.8739014l0.1723633,2.3079834
		c-3.9099121-2.3883667-7.684082-5.0005493-11.2658691-7.8759766c-0.753418-0.6022339-1.8553467-0.4846191-2.4606934,0.2698364
		c-0.6033936,0.7533569-0.4848633,1.854187,0.2686768,2.4596558c7.9683838,6.395752,16.7819824,11.6582031,26.1906738,15.6424561
		c0.7723389,0.3272705,1.5435791,0.632019,2.3399658,0.867981c0.4459229,1.769104,0.869751,3.5484619,1.2242508,5.3384399
		c0.2670898,1.3494263,0.5020752,2.7089233,0.7056885,4.0756226c-1.8320389-1.2724609-3.4692459-2.8200073-4.7824783-4.6339722
		c-0.5655518-0.7833862-1.6553955-0.9573975-2.4445801-0.3907471c-0.7822266,0.5665894-0.9550781,1.6610107-0.3898926,2.4434204
		c2.1258545,2.935791,4.9442139,5.3048077,8.1560135,6.9769878c0.3348389,3.4066162,0.4570312,6.8415527,0.4036865,10.2717285
		c-7.2425613-4.4344482-14.165657-9.4528809-20.5777664-15.001646c-2.137207-1.8485107-4.5567627-4.0380249-6.2387695-6.6161499
		c-0.9938965-1.5244751-1.7541504-3.1985474-2.5605469-4.9702148c-0.8572998-1.8864746-1.7424316-3.8364868-2.9521484-5.6431274
		c-0.565918-0.8441162-1.2016602-1.6228638-1.8669434-2.3729858c0.0708008-0.2297363,0.1018066-0.4744263,0.0700684-0.7283936
		c-0.402832-3.1862793-1.8391113-6.2179565-4.0413818-8.5490723h-2.6151123
		c-0.5960693,0.6740723-0.5953369,1.6998901,0.0377197,2.3622437c0.7440186,0.7797852,1.3504639,1.6768188,1.8526611,2.62854
		c-1.6999512-1.2998657-3.4829102-2.5011597-5.2468262-3.6808472c-0.6553955-0.4382324-1.3056641-0.8734131-1.9464111-1.3099365
		h-5.9359131c1.8874512,1.5097046,3.9250488,2.87323,5.9372559,4.2189941
		c4.2507324,2.8430786,8.2683105,5.5291748,10.8469238,9.3797607c1.0510254,1.5671387,1.8391113,3.3036499,2.6755371,5.142395
		c0.8227539,1.812439,1.6755371,3.6865234,2.814209,5.4345093c1.9301758,2.9592285,4.5632324,5.345459,6.8812256,7.3502197
		c7.0507812,6.1032085,14.6949463,11.6068707,22.7147293,16.3805523c-0.2119141,3.5307617-0.6069336,7.0424194-1.2329102,10.4908447
		c-0.1384277,0.7651978-0.2885742,1.5316772-0.4387283,2.2992554c-0.5488281,2.8308716-1.1018066,5.731205-1.2003174,8.693119
		c-0.1766357-0.2055664-0.3527832-0.4122314-0.5291748-0.6167603c-1.425293-1.6525269-2.7723389-3.2145996-3.8015137-4.9210815
		c-0.4470215-0.7386513-0.8344727-1.5084267-1.2244873-2.2771034c-0.2493896-0.4882812-0.4959717-0.9763184-0.7564697-1.4577026
		c-1.1367188-2.0962524-2.4956055-4.0432129-3.8105469-5.9255371c-0.8874512-1.2688599-2.3428955-3.3508301-4.7490234-3.7555542
		c-0.9348145-0.1625366-1.8555908,0.4810791-2.0136719,1.4343262c-0.1623535,0.9532471,0.4815674,1.8557739,1.4345703,2.0161133
		c0.8848877,0.1491089,1.690918,1.210083,2.4431152,2.2838135c1.2762451,1.8278809,2.5773926,3.6921387,3.6169434,5.6116333
		c0.2468262,0.4525757,0.4797363,0.9147949,0.7131348,1.3758545c0.4291992,0.8467445,0.8605957,1.6915932,1.3509521,2.5026894
		c1.1833496,1.9595337,2.6889648,3.7072144,4.1485596,5.3974609c1.4980469,1.7362061,2.9416504,3.4136963,3.949707,5.2093506
		c0.4404297,1.7056274,1.002449,3.3546143,1.5671463,4.9607544c0.5618896,1.5968628,1.0930176,3.1048584,1.4858398,4.6433105
		c1.0375977,4.0482178,1.152832,8.5331421,1.2625732,12.8684692c0.12146,4.7401123,0.274292,9.5844116,1.553833,14.1658325
		c-8.5471268-3.7573242-12.6318436-14.4194336-13.7771072-17.9585571
		c-1.1018066-3.4157715-1.9382324-7.0404053-2.7491455-10.5466919c-1.4293213-6.1952515-2.9061279-12.600769-5.9436035-18.4504395
		c-1.817749-3.5000038-4.1228027-6.6654701-6.352417-9.7263832c-2.2772217-3.1251221-4.5888672-6.2901001-6.9956055-9.4085083
		c1.0394287-4.1716309,1.2358398-8.5921021,0.5268555-12.8291016c-0.1564941-0.9545898-1.076416-1.6003418-2.0141602-1.4371338
		c-0.9534912,0.1599121-1.5966797,1.0616455-1.435791,2.0151367c0.4760742,2.8488159,0.4907227,5.791626,0.0761719,8.6617432
		c-2.696167-3.3168945-5.5404053-6.5324707-8.6166992-9.5400391c0.019043-0.1581421,0.0452881-0.3154297,0.0187988-0.4804688
		c-0.8635254-5.3409405-2.7254639-10.414793-4.5246582-15.3204327c-1.5280762-4.1577148-3.2580566-8.8690796-6.3710938-12.6453247
		c-0.9573975-1.1621094-2.0371094-2.1748657-3.1577148-3.1347046c0.0928955-0.2999268,0.135376-0.6172485,0.0515137-0.9434204
		c-0.1009521-0.3896484-0.21521-0.7761841-0.3349609-1.1611938H63.009697
		c3.5655518,2.2662964,6.9283447,4.4197998,9.4371338,7.4640503c2.4830322,3.0130615,3.9827881,6.7724609,5.3624268,10.4976196
		c-0.567627-0.4436035-1.119751-0.8475952-1.6049805-1.1646729c-1.4897461-0.972168-3.0554199-1.8071899-4.5706787-2.6142578
		c-2.1535645-1.1480713-4.1881104-2.2316895-5.973999-3.6622314c-0.7487793-0.6022949-1.8552246-0.4846802-2.4584961,0.2720947
		c-0.6057129,0.7544556-0.482666,1.8550415,0.2709961,2.4595947c2.0400391,1.6327515,4.3146973,2.8460693,6.515625,4.0186768
		c1.5135498,0.8070679,2.944458,1.5678711,4.3034668,2.4554443c1.7543945,1.1459961,5.8453369,4.2645264,5.940918,8.4658203
		c0.0029297,0.1217041,0.050293,0.2279053,0.076416,0.342041C75.289238,24.7662106,69.9296188,21.0225582,64.6987839,17.37467
		c-4.0662842-2.8349609-8.2701416-5.7670898-12.2125244-8.8410034c-1.8155518-1.4156494-3.8811035-3.0914307-5.4155273-5.0543823
		c-0.7403564-0.9486084-1.3718262-1.9807129-1.9499512-3.067749h-5.1765137
		c0.3240967,0.694458,0.6513672,1.388916,1.0117188,2.0725708c-1.4058838-0.7243042-2.8339844-1.4400635-4.309082-2.0725708
		H26.5436325c1.4689941,0.6324463,2.9938965,1.1514282,4.5009766,1.6593628
		c1.1484375,0.3866577,2.2946777,0.7710571,3.3999023,1.2094727c1.9549561,0.7731934,3.8953857,1.7802124,5.7741699,2.7522583
		l5.407959,2.8048096c0.0212402,0.0110474,0.045166,0.0060425,0.0662842,0.0159912
		c1.3028564,1.2592773,2.6647949,2.3776245,3.9239502,3.3594971c4.0410156,3.1496582,8.296875,6.1177368,12.4139404,8.987793
		c6.8946533,4.8103027,14.0269775,9.7839966,20.1289062,15.6279278
		c7.0137939,6.7172852,12.8791504,14.7678223,18.5540771,22.5529175c2.1258545,2.9214478,4.3276367,5.9418373,5.9814453,9.1296425
		c1.0079346,1.9411621,1.8244629,3.9526367,2.5283203,6.022583c-1.435791-1.5988159-2.8077393-3.2548218-4.0913086-4.9727783
		c-0.5766602-0.7753296-1.6690674-0.9334717-2.4486084-0.3555298c-0.7733154,0.5789795-0.9326172,1.6746216-0.3536377,2.4488525
		c2.6514893,3.5518188,5.6467285,6.866394,8.888916,9.895874c0.34729,1.4168091,0.6804199,2.8529663,1.0164795,4.3101196
		c0.8319092,3.6019287,1.6898193,7.3265991,2.8560791,10.932251c3.907959,12.0964355,11.5328369,20.2702637,20.5025711,22.0965576
		c0.0848389,0.1488037,0.1473389,0.3034668,0.2362061,0.451416c3.574585,5.9441528,9.7635498,9.5754929,14.355957,11.8442307
		c0.1452637,3.428894,0.6538086,6.8356323,1.390625,10.2109375c-3.8303223-2.8062744-8.0196533-5.151062-12.394043-6.899353
		c-0.8951416-0.3553467-1.9152832,0.0773315-2.2736816,0.9759521c-0.3588867,0.897583,0.0782471,1.9153442,0.9733887,2.2741089
		c5.4543457,2.1785889,10.6097412,5.3400879,15.0622559,9.2078857c0.4552002,1.6984253,0.9240723,3.3912354,1.3997803,5.0709229
		c0.8988037,3.1748657,1.7929688,6.4139404,2.5335693,9.6542358c-7.7277832-8.3591919-16.8990479-15.4265137-26.9727783-20.6856689
		c-0.7200928-0.3759155-1.4447021-0.7435913-2.1710281-1.1114502c-3.4626465-1.7558594-6.7331543-3.4147949-9.3303223-5.8753052
		c-3.4655762-3.2877197-5.4853516-7.7670822-7.6252441-12.5087814c-1.0700684-2.3747559-2.1791992-4.8314819-3.4926758-7.1578369
		c-0.5440674-0.961792-1.1322021-1.8881226-1.7380371-2.7994995c1.6887207-4.4127808,3.3112793-8.9782715,3.6125488-13.8856201
		c0.3818359-6.1872559-1.7075195-11.8838501-5.5856934-15.2382812c-0.5771484-0.4998169-1.1975098-0.9514771-1.8154297-1.4008789
		c-0.8858643-0.6412964-1.7189941-1.2463989-2.3479004-1.9690552c-2.0769043-2.3900146-2.0581055-6.2159424-1.8587646-9.930542
		c0.0507812-0.9639282-0.6905518-1.7884521-1.6544189-1.8391724c-0.925293-0.062439-1.7861328,0.6881714-1.8413086,1.6542969
		c-0.2358398,4.428894-0.2197266,9.0350952,2.7132568,12.4104004c0.8907471,1.0252075,1.9295654,1.7781372,2.9344482,2.5064087
		c0.5375977,0.390625,1.0799561,0.7801514,1.581665,1.2142334c1.4954834,1.2935791,2.6447754,3.065979,3.3990479,5.1311646
		c-1.3720703-1.2207642-2.9682617-2.1897583-4.7209473-2.7750244c-0.9133301-0.3109741-1.9078369,0.1898804-2.2141113,1.1054688
		c-0.3061523,0.916626,0.1900635,1.9076538,1.1057129,2.2139893c3.1248779,1.0424194,5.6430664,3.6540527,6.5725098,6.8146362
		c0.0422363,0.1450806,0.1164551,0.2701416,0.1904297,0.3942871c-0.2883301,3.4654541-1.317627,6.866272-2.5306396,10.1897583
		c-4.5030518-5.7141113-10.0637207-10.5194702-15.4901123-15.2033081c-0.520752-0.4489136-1.0460205-0.9047852-1.5705566-1.3589478
		c-0.0092773-0.3216553-0.0753174-0.6450195-0.2258301-0.953125c-1.0805664-2.2128296-1.0749512-4.9284668-1.0686035-7.8045654
		l0.0007324-0.270874c0.0158691-12.4018555-1.137207-24.87714-3.4299316-37.0793495
		c-0.2382812-1.2651978-1.4440918-2.1082153-2.7253418-1.8618164c-1.2650146,0.2380371-2.0979004,1.4563599-1.8620605,2.7229004
		c0.9780273,5.1999512,1.7036133,10.454895,2.2545166,15.727356c-0.1636963-0.1697998-0.3253174-0.3449097-0.4888916-0.5136719
		c-0.3874512-0.3995972-0.7728271-0.7979126-1.151123-1.1986084c-6.9041748-7.355896-11.232666-16.9378662-12.1881104-26.979248
		c-0.090332-0.9630737-0.9515381-1.668211-1.9075928-1.5765972c-0.9609375,0.0916138-1.6661377,0.9447613-1.5755615,1.9065533
		c0.085083,0.8961792,0.2325439,1.7820435,0.3668213,2.6703491c-0.3413086-0.4732666-0.6585693-0.9648438-0.9719238-1.4579468
		c-0.5246582-0.8269043-1.0678711-1.6811523-1.7473145-2.4866333c-1.5447998-1.8305645-3.4511719-2.8525982-5.3718262-2.8767681
		c-0.8840332-0.0274048-1.7558594,0.7618408-1.7703857,1.7279053c-0.012085,0.9670391,0.7629395,1.7594585,1.729126,1.7714214
		c0.8725586,0.010376,1.8718262,0.6064453,2.739624,1.6339111c0.52771,0.6254272,0.9836426,1.3445435,1.4669189,2.1057129
		c0.3771973,0.5922241,0.7548828,1.1845093,1.168457,1.7478027c0.5837402,0.7936401,1.2492676,1.5523682,1.9168701,2.3079224
		c1.4296875,1.6195679,2.7790527,3.1508179,3.036377,4.9192505c0.0645752,0.4385376,0.2872314,0.8145142,0.6005859,1.0803833
		c2.2785645,5.8575439,5.6313477,11.2918091,9.9580078,15.9004517c0.3900146,0.4155884,0.7891846,0.8264771,1.1882324,1.2396851
		c1.3356934,1.3765297,2.5952148,2.7089882,3.5299072,4.160038c0.3508301,4.7985229,0.5753174,9.6044312,0.5692139,14.4012451
		l-0.0006104,0.2687378c-0.0029297,1.1245728-0.0024414,2.303833,0.0675049,3.4998779
		c-0.7220459-0.6771851-1.4359131-1.3585815-2.1287842-2.0479126c-7.6623535-7.6174927-13.7993164-16.4771729-18.2412109-26.3330727
		c-0.7373047-1.6377563-1.4313965-3.3078003-2.1278076-4.980957c-2.1711426-5.2192993-4.4140625-10.5866089-7.9934082-15.1365967
		c0.0133057-0.2605591-0.0145264-0.5249634-0.1254883-0.7803345c-1.5870361-3.6634521-3.730835-7.0566998-6.3121338-10.0784283
		c0.763916-2.8109741,0.8483887-5.7949829,0.2299805-8.6455688c-0.2062988-0.9462891-1.1533203-1.5473022-2.081543-1.338623
		c-0.9440918,0.2054443-1.5439453,1.1366577-1.3395996,2.0805664c0.3413086,1.5719604,0.3974609,3.1920776,0.2182617,4.7857056
		c-0.9680176-0.9130859-1.9691162-1.7924194-3.0269775-2.605835c-2.682373-2.0618286-5.604126-3.7545166-8.541626-5.3238525
		c-0.0881348-0.1523438-0.1787109-0.3047485-0.3157959-0.4291382c-3.7213135-3.3738403-6.2567139-7.9570923-7.1427002-12.9036255
		c-0.1722412-0.9500732-1.0759277-1.583252-2.0299072-1.4142456c-0.9509277,0.1702271-1.585083,1.0797119-1.4150391,2.0308228
		c0.5500488,3.0736084,1.6690674,6.0155029,3.2403564,8.6924438c-4.4450684-2.4416504-8.6412344-5.3341675-10.7155752-9.5282593
		c-0.4267578-0.8640137-1.4724121-1.2218018-2.344727-0.7924194C7.0768361,1.985815,6.7216115,3.0348263,7.1483693,3.9012203
		c2.7441411,5.548645,8.2016602,8.9807129,13.6876221,11.8648071c0.8846436,0.4636841,1.7713623,0.9213867,2.6607666,1.3782959
		c3.9605713,2.0395508,8.0566406,4.1488647,11.5777588,6.8565063c2.7808838,2.1378174,5.2209473,4.6809692,7.272583,7.5092773
		c-5.4807129-3.005188-12.0461426-3.9498291-18.4547119-4.8633423c-1.1783447-0.1675415-2.3665771-0.3404541-3.5523682-0.5239258
		c-0.3215332-0.2918091-0.6538086-0.6307983-1.0048828-1.0685425c-1.993042-2.4886475-3.6918936-5.2192383-5.0429678-8.1174316
		c-0.411377-0.8778687-1.4570312-1.2468262-2.324707-0.8461304C11.7306452,16.2011471,11.5338678,16.3600216,11.3755426,16.5468502z
		 M213.0940552,57.9800758c-1.5588989-3.4771729-3.1432495-7.0331421-4.331543-10.6430664
		c0.2689209,0.3463745,0.6636963,0.5961304,1.1326904,0.6629028c4.0564575,0.5776367,7.7897949,3.3557129,9.508667,7.0772095
		c0.0661011,0.1434326,0.15448,0.2686157,0.2509766,0.3843994c-0.0319824,0.4668579-0.0708008,0.9309692-0.0706787,1.4106445
		c0.0031738,3.1513672,0.9055786,6.2545776,2.4932861,8.9678993c-1.3807983,1.9439697-2.5887451,4.0040283-3.619751,6.1516113
		C217.199646,67.1420059,215.1253052,62.5127907,213.0940552,57.9800758z"/>
</g>
</svg>
