<?xml version="1.0" encoding="utf-8"?>
<!-- Generator: Adobe Illustrator 20.1.0, SVG Export Plug-In . SVG Version: 6.00 Build 0)  -->
<svg version="1.1" id="Слой_1" xmlns="http://www.w3.org/2000/svg" xmlns:xlink="http://www.w3.org/1999/xlink" x="0px" y="0px"
	 width="683.4927368px" height="300.2527161px" viewBox="0 0 683.4927368 300.2527161"
	 style="enable-background:new 0 0 683.4927368 300.2527161;" xml:space="preserve">
<style type="text/css">
	.st0{fill-rule:evenodd;clip-rule:evenodd;fill:#5F6F80;}
	.st1{fill-rule:evenodd;clip-rule:evenodd;fill:#BCBBCB;}
	.st2{fill-rule:evenodd;clip-rule:evenodd;fill:#DBE9E5;}
	.st3{fill-rule:evenodd;clip-rule:evenodd;fill:#A8C7D3;}
</style>
<polygon class="st0" points="145.0791016,150.1667328 289.6559753,150.1667328 395.7183533,0.0807569 251.0322723,0.0807569 "/>
<polygon class="st1" points="432.8535156,150.1667328 577.4304199,150.1667328 683.4927368,0.0807569 538.8067017,0.0807569 "/>
<polygon class="st2" points="394.5105286,300.1719666 249.9336548,300.1719666 143.8712921,150.0859833 288.557373,150.0859833 "/>
<polygon class="st3" points="539.0322266,300.2527161 394.4553833,300.2527161 288.3930054,150.1667328 433.0791016,150.1667328 "/>
<polygon class="st1" points="251.3984833,300.2527161 106.8216019,300.2527161 0.7592342,150.1667328 145.4453278,150.1667328 "/>
<polygon class="st2" points="288.6516724,150.0859833 433.2285461,150.0859833 539.2909546,0 394.6048279,0 "/>
<polygon class="st3" points="0,150.1667328 144.5768738,150.1667328 250.6392517,0.0807569 105.9531631,0.0807569 "/>
<polygon class="st0" points="683.3215332,300.2527161 538.7446289,300.2527161 432.6822815,150.1667328 577.3683472,150.1667328 "/>
</svg>
