<?xml version="1.0" encoding="utf-8"?>
<!-- Generator: Adobe Illustrator 20.1.0, SVG Export Plug-In . SVG Version: 6.00 Build 0)  -->
<svg version="1.1" xmlns="http://www.w3.org/2000/svg" xmlns:xlink="http://www.w3.org/1999/xlink" x="0px" y="0px" width="40px"
	 height="48.6105499px" viewBox="0 0 40 48.6105499" style="enable-background:new 0 0 40 48.6105499;" xml:space="preserve">
<style type="text/css">
	.st0{fill:#EE412A;}
	.st1{fill:#FFFFFF;}
</style>
<g id="Слой_1">
</g>
<g id="Слой_2">
	<path class="st0" d="M40,20.2035179C40,9.1577816,31.0457363,0,20,0S0,9.2595406,0,20.305275
		c0,5.5810547,2.2907715,10.5561714,5.9775391,14.5561714H5.9693198L20,48.6105499l14.031086-13.7491035h-0.008625
		C37.7092285,30.8614464,40,25.7845726,40,20.2035179z"/>
	<path class="st1" d="M32.7857857,24.5184288l-4.7833881-5.8690624l-2.4134827-2.9166346
		c-0.8049145-0.9708786-1.604784-1.9460011-2.4189548-2.9092226c-0.3774109-0.5378399-0.7768993-1.0058432-1.2258987-1.4616385
		c-0.4609623-0.4612999-0.9671898-0.8900337-1.5480804-1.2380762c-0.5766468-0.3453979-1.2522221-0.6111813-1.9847164-0.6239128
		c-0.3400784-0.0021524-0.6297855,0.0090408-0.9471703,0.0129156l-2.897584,0.0648241l-0.4978857,0.0093794l0.1257763,0.4538879
		c0.5101633,1.7757931,1.0103655,3.5535545,1.5369196,5.3250732c0.5171137,1.7739782,1.0542307,3.5424833,1.6039095,5.3080053
		c-0.3790092-1.809866-0.7699718-3.6167793-1.1815472-5.4181566c-0.3669243-1.6460533-0.7355967-3.2869406-1.1184807-4.9288731
		c0,0,3.0653515,0.0737638,3.3466644,0.0861263c0.5166206,0.0284138,1.0353012,0.2351427,1.5150223,0.5342302
		c0.4804878,0.3017616,0.9243813,0.6879921,1.3319283,1.114727c0.4029961,0.4244909,0.7906151,0.9033766,1.1025867,1.374917
		l0.0144215,0.0211706l0.0193119,0.0238848c0.7872334,0.9864082,1.5889187,1.9607887,2.3854675,2.9395094l2.3923874,2.9338989
		l4.1230679,4.9802189l-5.8525505,0.0506897l-6.9650364,0.1021461l-6.9650373,0.1490459
		c-2.3216896,0.0542755-4.6433482,0.1289062-6.9650378,0.2154713c2.3216896,0.086565,4.6433482,0.1612282,6.9650378,0.2155037
		l6.9650373,0.1490192l6.9650364,0.1021862l6.9650383,0.0603027l1.1173172,0.0096874L32.7857857,24.5184288z"/>
</g>
</svg>
