<?xml version="1.0" encoding="UTF-8"?><!DOCTYPE svg PUBLIC "-//W3C//DTD SVG 1.1//EN" "http://www.w3.org/Graphics/SVG/1.1/DTD/svg11.dtd"><svg xmlns="http://www.w3.org/2000/svg" xmlns:xlink="http://www.w3.org/1999/xlink"><symbol id="icon-icon_arrow_menu" viewBox="0 0 12 6">
    <path d="M0 0l6 6 6-6-6 3z"/>
</symbol><symbol id="icon-icon_arrows" viewBox="0 0 56 20">
    <path d="M46 20l10-10L46 0l5 10z"/>
    <path d="M10 20L0 10 10 0 5 10z"/>
</symbol><symbol id="icon-icon_close" viewBox="0 0 14 14">
    <path d="M13.946 1.561L12.532.147 7.047 5.633 1.56.147.147 1.561l5.486 5.486-5.486 5.485 1.414 1.414 5.486-5.485 5.485 5.485 1.414-1.414-5.485-5.485z"/>
</symbol><symbol id="icon-icon_l2" viewBox="0 0 455999985 205">
    <style>
        .st0{fill:#212121}
    </style>
    <path class="st0" d="M26.2 20.5v-5.7H13.4L26.2.3h-8.5L0 20.5h16.3z"/>
    <path class="st0" d="M41 14.9l2.7-3.2c1.2-1.4 1.8-2.8 1.8-4.6 0-2.2-1-3.7-1.9-4.6C42.2 1 39.8 0 36.8 0c-2.8 0-5.5 1-7.1 2.7-1.1 1.2-1.8 3.1-1.9 5.2h7.1c.1-.5.2-1 .4-1.3.2-.2.6-.6 1.3-.6.5 0 .9.1 1.2.4s.5.7.5 1.1c0 1.1-.6 2-1.2 2.8l-8.5 10.2h17v-5.7l-4.6.1z"/>
</symbol><symbol id="icon-icon_map-marker" viewBox="0 0 33468 33468">
    <path d="M16.734 0C9.375 0 3.408 5.966 3.408 13.325c0 11.076 13.326 20.143 13.326 20.143S30.06 23.734 30.06 13.324C30.06 5.965 24.093 0 16.734 0zm0 19.676a6.353 6.353 0 1 1 6.352-6.351 6.352 6.352 0 0 1-6.352 6.351z"/>
</symbol><symbol id="icon-icon_play" viewBox="0 0 17 18">
    <path d="M0 18V0l17 9.474L0 18z"/>
</symbol><symbol id="icon-icon_radio-red" viewBox="0 0 12 8">
    <path d="M12 0L4 5 0 3l4 5 8-8z"/>
</symbol></svg>