<?xml version="1.0" encoding="UTF-8"?><!DOCTYPE svg PUBLIC "-//W3C//DTD SVG 1.1//EN" "http://www.w3.org/Graphics/SVG/1.1/DTD/svg11.dtd"><svg xmlns="http://www.w3.org/2000/svg" xmlns:xlink="http://www.w3.org/1999/xlink"><symbol id="icon-icon_arrow_close" viewBox="0 0 12 9">
    <path d="M0 0l6 6 6-6-6 3z"/>
    <path d="M6 6l6 3-6-6-6 6z"/>
</symbol><symbol id="icon-icon_arrow_menu" viewBox="0 0 12 6">
    <path d="M0 0l6 6 6-6-6 3z"/>
</symbol><symbol id="icon-icon_arrows" viewBox="0 0 56 20">
    <path d="M46 20l10-10L46 0l5 10z"/>
    <path d="M10 20L0 10 10 0 5 10z"/>
</symbol><symbol id="icon-icon_card_01" viewBox="0 0 32 32">
    <style>
        .st0{fill:#cecece}
    </style>
    <path class="st0" d="M0 26h32v-2z"/>
    <path class="st0" d="M0 28h32v1H0z"/>
    <path class="st0" d="M15.5 6.5h1v3h-1z"/>
    <path transform="rotate(90 16 6.5)" class="st0" d="M15.5 3.5h1v6h-1z"/>
    <path class="st0" d="M16 8C7.2 8 0 15.2 0 24c.3-7.8 6.6-14 14.5-14 8 0 14.5 6.5 14.5 14.5l3-.5c0-8.8-7.2-16-16-16z"/>
</symbol><symbol id="icon-icon_card_02" viewBox="0 0 32 32">
    <path d="M23 3.5c-2.8 0-5.4 1.3-7 3.4-1.6-2-4.2-3.4-7-3.4-5 0-9 4-9 9 0-3.9 3.1-7 7-7s7 3.1 7 7c0-.3 0-.6.1-.8.4-3.5 3.4-6.2 6.9-6.2 3.9 0 7 3.1 7 7 0 1.8-.7 3.5-1.9 4.8L16 26.4 2.9 19.2 16 29l12.7-9.5c2-1.7 3.3-4.2 3.3-7 0-5-4-9-9-9z"/>
</symbol><symbol id="icon-icon_card_03" viewBox="0 0 32 32">
    <style>
        .st0{fill:#cecece}
    </style>
    <path class="st0" d="M28 14.5v-6H4v6c-2.2 0-4 1.8-4 4v11h1v-2h30v2h1v-11c0-2.2-1.8-4-4-4zm-1-5v5H16.5v-5H27zm-22 0h10.5v5H5v-5zm-4 17v-8c0-1.7 1.3-3 3-3s24 3 24 3c1.7.3 3 1.3 3 3v5H1z" id="&#x421;&#x43B;&#x43E;&#x439;_1_1_"/>
</symbol><symbol id="icon-icon_card_04" viewBox="0 0 32 32">
    <style>
        .st0{fill:#231f20}
    </style>
    <g id="&#x421;&#x43B;&#x43E;&#x439;_1_2_">
        <path class="st0" d="M0 28h32v1H0z" id="&#x421;&#x43B;&#x43E;&#x439;_1_1_"/>
    </g>
    <g id="&#x421;&#x43B;&#x43E;&#x439;_2">
        <path class="st0" d="M32 9c-2.4-1.4-5.5-1.5-8.1 0l-4.1 2.3c-5.1.4-11.3.9-13.1 1.1-4.2.3-6.6 2-6.6 2l7.1 1.9s2.5.5-5.1-2c2.2-1 4.9-.9 4.9-.9h17.2l3.6-2.1L32 9z"/>
        <path class="st0" d="M15.8 18.2L11.3 17l-3.1 1.8s-2.3.1-4.6-.1c-1.5-.1-3.5.9-3.5.9l3.3 1.6c2.2 1.3 5 1.4 7.4 0l3.9-2.2c.3-.3.7-.5 1.1-.8.1 0 0 0 0 0z"/>
    </g>
</symbol><symbol id="icon-icon_card_05" viewBox="0 0 32 32">
    <style>
        .st0{fill:#231f20}
    </style>
    <path class="st0" d="M28.8 21v1c-.1.1-.8 1.2-.8 1.2 1.4 0 1.7-.8 1.8-.9V20H22l6.8 1z"/>
    <path class="st0" d="M1.7 12.2C-.1 13.5 0 14.8 0 14.9L.6 27h6.2v-2h18.4v2h6.2l.6-12.1c0-.1.1-1.4-1.7-2.7l-1.5-1.1c-.1-.1-.2-.4-.4-.7 2.1 0 3.5-.3 2.5-.8-1.1-.6-2.5-1-2.7-.9-.1 0-.2.5-.3.9-.8-1.3-2-3.1-2.6-3.7-1-.8-3.6-.9-9.3-.9-5.7 0-8.3 0-9.3.9-.6.6-1.8 2.4-2.7 3.8-.1-.4-.2-.9-.3-1-.2-.2-1.7.3-2.7.8-.9.5.5.8 2.6.9-.2.3-.3.5-.4.7l-1.5 1.1zm28 .8c.2.2.4.3.5.5-.3.5-4.2 1.1-5.7 1.6s-2.1 1.8-2.1 1.8 3.5-.1 5.9-.1c2 0 2.2-2.7 2-3.2.7.7.7 1.3.7 1.3l-.5 9.1h-29L1 14.9S1 14 2.3 13l1.6-1.2.1-.1c.1-.1.2-.3.2-.4.7.3 5.8 2.3 12.1 2.3 5.8 0 9.9-1.7 10.9-2.2.4.2.6.4.6.4s-.2-.4-.4-.9c.2.3.4.6.5.9l1.8 1.2zM7.3 6.7c.3-.2.8-.4 1.5-.5 9.5 0 16.3 3.8 18.4 5.1-1.2.2-5.5.9-10.8.9-5.9 0-11.4-.9-12.1-1 .8-1.4 2.4-4 3-4.5z"/>
    <path class="st0" d="M3.7 16.9h5.8s-.6-1.3-2.1-1.8S2 14 1.8 13.6c-.2-.4-.5 3.3 1.9 3.3z"/>
    <path class="st0" d="M2.1 22.1v.2c.1.1.4.9 1.8.9 0 0-.7-1.1-.8-1.2v-1l6.9-1H2.1v2.1z"/>
    <path class="st0" d="M0 28h32v1H0z"/>
</symbol><symbol id="icon-icon_check" viewBox="0 0 12 8">
    <path d="M12 0L4 5 0 3l4 5 8-8z"/>
</symbol><symbol id="icon-icon_close" viewBox="0 0 14 14">
    <path d="M13.946 1.561L12.532.147 7.047 5.633 1.56.147.147 1.561l5.486 5.486-5.486 5.485 1.414 1.414 5.486-5.485 5.485 5.485 1.414-1.414-5.485-5.485z"/>
</symbol><symbol id="icon-icon_download" viewBox="0 0 18 17">
    <path d="M3 0l6 6 6-6-6 3z"/>
    <path d="M3 7l6 6 6-6-6 3z"/>
    <path d="M17 13v3H1v-3H0v4h18v-4z"/>
</symbol><symbol id="icon-icon_l2" viewBox="0 0 455999985 205">
    <style>
        .st0{fill:#212121}
    </style>
    <path class="st0" d="M26.2 20.5v-5.7H13.4L26.2.3h-8.5L0 20.5h16.3z"/>
    <path class="st0" d="M41 14.9l2.7-3.2c1.2-1.4 1.8-2.8 1.8-4.6 0-2.2-1-3.7-1.9-4.6C42.2 1 39.8 0 36.8 0c-2.8 0-5.5 1-7.1 2.7-1.1 1.2-1.8 3.1-1.9 5.2h7.1c.1-.5.2-1 .4-1.3.2-.2.6-.6 1.3-.6.5 0 .9.1 1.2.4s.5.7.5 1.1c0 1.1-.6 2-1.2 2.8l-8.5 10.2h17v-5.7l-4.6.1z"/>
</symbol><symbol id="icon-icon_map-marker" viewBox="0 0 33468 33468">
    <path d="M16.734 0C9.375 0 3.408 5.966 3.408 13.325c0 11.076 13.326 20.143 13.326 20.143S30.06 23.734 30.06 13.324C30.06 5.965 24.093 0 16.734 0zm0 19.676a6.353 6.353 0 1 1 6.352-6.351 6.352 6.352 0 0 1-6.352 6.351z"/>
</symbol><symbol id="icon-icon_play" viewBox="0 0 17 18">
    <path d="M0 18V0l17 9.474L0 18z"/>
</symbol><symbol id="icon-icon_radio-red" viewBox="0 0 12 8">
    <path d="M12 0L4 5 0 3l4 5 8-8z"/>
</symbol></svg>