<?xml version="1.0" encoding="utf-8"?>
<!-- Generator: Adobe Illustrator 20.1.0, SVG Export Plug-In . SVG Version: 6.00 Build 0)  -->
<svg version="1.1" id="Слой_1" xmlns="http://www.w3.org/2000/svg" xmlns:xlink="http://www.w3.org/1999/xlink" x="0px" y="0px"
	 width="595.40967px" height="752.09814px" viewBox="0 0 595.40967 752.09814"
	 style="enable-background:new 0 0 595.40967 752.09814;" xml:space="preserve">
<path fill="#fff" d="M552.86371,616.91486c-12.01251,8.55426-25.95435,17.28796-41.56439,25.09296
	c-38.15088,19.62012-86.2915,33.79053-135.34131,33.79053c-132.97949,0-293.20898-99.19043-293.20898-296.47949
	c0-167.85938,124.25977-303.01904,292.11914-303.01904c42.50977,0,87.2002,10.8999,125.3501,28.33984
	c18.21619,8.57263,36.08289,19.51727,52.0813,31.14758l43.11011-62.42737v-1.41992C507.40967,5.4502,424.09863,0,380.49902,0
	C162.5,0,0,161.31934,0,378.229c0,210.36914,160.3645,373.86914,376.18384,373.86914c54.5,0,138.22583-13.08008,219.22583-70.85059
	v-2.42737L552.86371,616.91486z"/>
</svg>
