<?xml version="1.0" encoding="utf-8"?>
<!-- Generator: Adobe Illustrator 24.0.0, SVG Export Plug-In . SVG Version: 6.00 Build 0)  -->
<svg version="1.1" xmlns="http://www.w3.org/2000/svg" xmlns:xlink="http://www.w3.org/1999/xlink" x="0px" y="0px"
	 viewBox="0 0 22 17" style="enable-background:new 0 0 22 17;" xml:space="preserve" fill="#ee412a">
<g id="Слой_1">
</g>
<g id="Layer_2">
	<g>
		<g>
			<path d="M13.5,14c-0.8,0-1.5,0.7-1.5,1.5c0,0.8,0.7,1.5,1.5,1.5c0.8,0,1.5-0.7,1.5-1.5C15,14.7,14.3,14,13.5,14z M0,0v2h4V0H0z
				 M5.5,14C4.7,14,4,14.7,4,15.5C4,16.3,4.7,17,5.5,17C6.3,17,7,16.3,7,15.5C7,14.7,6.3,14,5.5,14z M4,2v10h11.2L22,2L4,2z"/>
		</g>
	</g>
</g>
</svg>
