<?xml version="1.0" encoding="utf-8"?>
<!-- Generator: Adobe Illustrator 20.1.0, SVG Export Plug-In . SVG Version: 6.00 Build 0)  -->
<svg version="1.1" id="Layer_1" xmlns="http://www.w3.org/2000/svg" xmlns:xlink="http://www.w3.org/1999/xlink" x="0px" y="0px"
	 width="94.4494019px" height="50px" viewBox="0 0 94.4494019 50" style="enable-background:new 0 0 94.4494019 50;"
	 xml:space="preserve">
<style type="text/css">
	.st0{fill:#ffffff;}
</style>
<g>
	<g>
		<g>
			<path class="st0" d="M14.4279747,38.8612671l4.4002934,10.8610687h-1.0378551l-1.3305092-3.5375557h-4.2684784
				l-1.3885641,3.5375557h-0.964572L14.4279747,38.8612671z M16.1529732,45.3662987l-1.7835293-4.5461464l-1.8563366,4.5461464
				H16.1529732z"/>
			<path class="st0" d="M20.4804592,39.2705078h1.0959091l3.0117283,8.5076942l3.1716194-8.5076942h1.0378532L24.5733452,50
				L20.4804592,39.2705078z"/>
			<path class="st0" d="M32.1600075,39.2705078h0.9502983v10.451828h-0.9502983V39.2705078z"/>
			<path class="st0" d="M41.0624275,38.8612671l4.4002953,10.8610687h-1.0378571l-1.3305092-3.5375557h-4.2684784
				l-1.3885651,3.5375557H36.472744L41.0624275,38.8612671z M42.787426,45.3662987l-1.7835274-4.5461464l-1.8563385,4.5461464
				H42.787426z"/>
			<path class="st0" d="M48.825161,39.2705078h0.9502945v9.5600624h3.581337v0.8917656H48.825161V39.2705078z"/>
			<path class="st0" d="M57.0551872,39.2705078h0.9502945v10.451828h-0.9502945V39.2705078z"/>
			<path class="st0" d="M67.7116318,39.8991241c-2.6162872,0-4.3850632,1.9588814-4.3850632,4.7214966
				c0,2.5434799,1.8415833,4.5023651,4.3850632,4.5023651c2.324585,0,3.9615479-1.5348892,3.9910507-3.7421761h-3.6108322
				v-0.8184814h4.6486893c0,0.0437813,0,0.1023102,0,0.1460915C72.7405396,47.9973373,70.7961655,50,67.6240768,50
				c-3.1720963,0-5.32061-2.2217979-5.32061-5.4816895c0-3.157341,2.1780167-5.4816856,5.2768326-5.4816856
				c2.0757065,0,3.6398621,0.7454338,4.4730988,2.2658119l-0.687149,0.59935
				C70.5182648,40.5862656,69.2615128,39.8991241,67.7116318,39.8991241z"/>
			<path class="st0" d="M80.0930786,38.8612671l4.4002914,10.8610687h-1.0378494l-1.330513-3.5375557h-4.2684784
				l-1.3885651,3.5375557h-0.9645691L80.0930786,38.8612671z M81.8180771,45.3662987l-1.7835312-4.5461464l-1.8563385,4.5461464
				H81.8180771z"/>
		</g>
		<path id="XMLID_71_" class="st0" d="M91.8250351,38.5123711c0.4407043,0,0.8708725,0.1114693,1.291832,0.3383713
			c0.419693,0.2256241,0.7463074,0.5495567,0.9810715,0.9705238c0.2347565,0.4223061,0.3514633,0.8616714,0.3514633,1.3168144
			c0,0.4538002-0.1154327,0.8892021-0.3462219,1.3062744c-0.2308731,0.4183426-0.5548019,0.7423439-0.9705276,0.9731407
			c-0.4170685,0.2321358-0.8538208,0.3449478-1.3076172,0.3449478c-0.4550781,0-0.8905487-0.112812-1.3076172-0.3449478
			c-0.4170609-0.2307968-0.7410049-0.5547981-0.9731445-0.9731407c-0.2307892-0.4170723-0.3475647-0.8524742-0.3475647-1.3062744
			c0-0.455143,0.1180496-0.8945084,0.3541489-1.3168144c0.2347565-0.4209671,0.5626526-0.7448997,0.982338-0.9705238
			C90.9528885,38.6238403,91.383049,38.5123711,91.8250351,38.5123711 M91.8250351,38.9452209
			c-0.3698654,0-0.729187,0.0956917-1.0780945,0.284584c-0.3488464,0.1888275-0.6216125,0.4603157-0.8197098,0.8105049
			c-0.1980209,0.3528061-0.2950516,0.718708-0.2950516,1.0977707c0,0.3803368,0.0957565,0.7422791,0.2898178,1.0898476
			c0.1941299,0.3449516,0.4656219,0.6164398,0.8131866,0.809227c0.3488464,0.1954079,0.7108612,0.2924385,1.0898514,0.2924385
			c0.3777161,0,0.7410049-0.0970306,1.0899124-0.2924385c0.3475113-0.1927872,0.6177139-0.4642754,0.8105087-0.809227
			c0.1927872-0.3475685,0.2885437-0.7095108,0.2885437-1.0898476c0-0.3790627-0.0970993-0.7449646-0.2937851-1.0977707
			c-0.1954041-0.3501892-0.4695129-0.6216774-0.8196945-0.8105049
			C92.5503235,39.0409126,92.192276,38.9452209,91.8250351,38.9452209 M90.6721954,42.592556v-2.8289719h0.9718704
			c0.3317947,0,0.571785,0.0275307,0.7213287,0.0786972c0.148201,0.0524445,0.2662506,0.1442413,0.3540802,0.2741089
			c0.0878983,0.1285248,0.1324844,0.2675247,0.1324844,0.4131088c0,0.2072258-0.0734558,0.3869171-0.2216568,0.5403557
			c-0.1468582,0.1534386-0.3422699,0.239994-0.5862274,0.2583961c0.1010056,0.0406265,0.1796951,0.0917931,0.2400055,0.1494751
			c0.1140823,0.1115379,0.2531586,0.2977448,0.4183426,0.5600319l0.3449478,0.5547981h-0.5574188l-0.2504654-0.4459457
			c-0.1980286-0.3514633-0.3567734-0.5691643-0.4773712-0.6596832c-0.0839386-0.0642624-0.2059402-0.0957565-0.3659668-0.0957565
			h-0.2675323v1.2013855H90.6721954z M91.1286163,41.0003548h0.5534515c0.2649155,0,0.4459457-0.0380058,0.5417023-0.1180496
			c0.0956879-0.0799751,0.144249-0.1849327,0.144249-0.3147316c0-0.0813217-0.0236435-0.157402-0.0695114-0.2242851
			c-0.045929-0.0656052-0.1101913-0.1154289-0.1927872-0.1469231c-0.0826569-0.0327682-0.2360992-0.0498238-0.4590378-0.0498238
			h-0.5180664V41.0003548z"/>
	</g>
	<path class="st0" d="M0,30.5788555c4.6080656-0.1718159,9.2161312-0.3199883,13.824214-0.4277115l13.824214-0.2957897
		l13.824213-0.2027817l13.8242149-0.11973l-0.8082581,1.7099285l-9.5832863-11.5756836l-4.7484016-5.8233471
		c-1.5810127-1.9425983-3.1721802-3.8768339-4.7346458-5.8346624l-0.0383606-0.0480604l-0.0286369-0.0432854
		c-0.6191864-0.9359198-1.388546-1.8888841-2.1884041-2.7314501c-0.8089142-0.8469787-1.6899223-1.6185756-2.6436119-2.2174962
		c-0.952137-0.593647-1.9816303-1.014002-3.0070248-1.0703654c-0.5583344-0.0245451-1.2176857-0.0259119-1.8215675-0.0400113
		l-0.925457-0.016639l-0.2313766-0.0041598l-0.1156807-0.0020756l-0.0289078-0.0005232l-0.0144615-0.0002531l-0.0072403-0.0001351
		l-0.0036106-0.0000675c-0.0011978-0.7488912-0.0024128,1.6762724-0.0036106-1.67904l0.0565147,0.0010378l0.4627209,0.0083195
		v1.6602577l-4.9766064-0.0954298L20.618,0.8103615c0.8306694,3.5718307,1.6765079,7.1397209,2.4746075,10.7200136
		c0.8168983,3.575408,1.5917454,7.1617346,2.343977,10.7539415c-1.0910034-3.5042114-2.1593781-7.0143032-3.1857147-10.535305
		c-1.0451202-3.5161333-2.0425014-7.0446625-3.055069-10.5692501l-0.2587986-0.9008532l0.9699402-0.0185966l4.9766064-0.0954297
		v1.6602577l-0.4627209,0.0083196l-0.0565147,0.0010378c0.0011978-3.3553123,0.0024128-0.9301487,0.0036106-1.6790484
		l0.0036106-0.0000591l0.0072403-0.000135l0.0144615-0.0002531l0.0289078-0.0005231l0.1156807-0.0020841l0.2313766-0.0041597
		l0.925457-0.0166306c0.629921-0.0076698,1.2049465-0.0298608,1.87994-0.0255998
		c1.4538403,0.0252623,2.7947483,0.5527667,3.93923,1.2383504c1.1529694,0.6907812,2.1577415,1.541751,3.0726357,2.4572859
		c0.9161911,0.930064,1.729496,1.8831718,2.4971695,2.9888403L37.016758,6.6993117
		c1.6171074,1.9129395,3.2054939,3.8494706,4.8040543,5.7776494l4.7902679,5.7889633l9.4940834,11.6489391l1.4093552,1.7292194
		l-2.2176628-0.0192032L41.472641,31.5051479l-13.824213-0.2027817l-13.824214-0.2957897
		C9.2161312,30.8988533,4.6080656,30.7506809,0,30.5788555z"/>
</g>
</svg>
