<?xml version="1.0" encoding="utf-8"?>
<!-- Generator: Adobe Illustrator 20.1.0, SVG Export Plug-In . SVG Version: 6.00 Build 0)  -->
<svg version="1.1" xmlns="http://www.w3.org/2000/svg" xmlns:xlink="http://www.w3.org/1999/xlink" x="0px" y="0px" width="60px"
	 height="90px" viewBox="0 0 60 90" style="enable-background:new 0 0 60 90;" xml:space="preserve">
<style type="text/css">
	.st0{fill:#FFFFFF;}
	.st1{fill:#ECD0E0;}
	.st2{fill:#D9E7E2;}
	.st3{fill:#DC412A;}
	.st4{opacity:0.2;fill:#FFFFFF;}
	.st5{fill:#7FBCAC;}
</style>
<g id="Слой_1">
	<g>
		<polygon class="st0" points="60,90 0,0 60,0 		"/>
	</g>
</g>
<g id="Слой_2">
	<g>
		<path class="st1" d="M27.3933487,28.2150078c0.9281921-4.1875324,3.7514534-5.4036942,10.7773018-5.2043018
			c0,0,0.4657631,3.7372055,0.5157127,8.0383053c0.1031418,8.8822632,3.5580826,12.7497711,1.9595261,17.4422722
			c-0.5581894,1.638546-2.7861214,3.9453773-4.9805984,5.0066528L24.8631268,37.2946892
			C25.7949371,33.620636,27.0160217,29.9174023,27.3933487,28.2150078z"/>
	</g>
	<g>
		<path class="st2" d="M31.9827328,27.7100658c2.4235401-3.9073067,6.0308247-3.4978676,6.3216763-3.457901
			c0.1417007,1.4482555,0.3495026,4.0029392,0.3819504,6.7968464c0.1020775,8.7922363,3.4851799,12.6712914,2.0034065,17.3002777
			c-2.8238602-0.3153839-6.4669189-1.2198067-8.0882492-3.7254562
			C29.7653885,40.2406502,29.4559841,31.7838173,31.9827328,27.7100658z"/>
		<path class="st2" d="M31.9827328,27.7100391c2.4235134-3.9073067,6.0308247-3.4978409,6.3216763-3.457901
			c0.1417007,1.4482822,0.3495026,4.0029659,0.3819504,6.7968731c0,0-4.2376862,1.0729637-7.5007553-1.6690006
			C31.4098091,28.7688236,31.6748466,28.2064362,31.9827328,27.7100391z"/>
		<path class="st3" d="M53.632019,34.107563c0,0-6.1215591,1.2543182-14.7225838,0.7416725
			c0,0-0.9873161-0.8935738-1.2910881-3.1808872c-0.3037987-2.2873154,1.80373-4.7794437,2.2024574-4.8719559
			c0.3987198-0.0925121,9.3196602,2.2784309,9.4160271,1.9758396C49.3331947,28.4696655,53.632019,34.107563,53.632019,34.107563z"
			/>
		<path class="st3" d="M38.1499634,23.0103474c0,0,10.404789-0.4556961,14.27808,2.9619503
			c3.8733177,3.4176197,2.5062523,8.5820236,2.5062523,8.5820236s-10.4807091-3.873291-17.3159485-2.8859997
			C37.6183472,31.6683216,36.5550804,26.7317657,38.1499634,23.0103474z"/>
		<path class="st4" d="M53.2340546,26.7963924c2.8600578,3.3641567,1.7002411,7.7579021,1.7002411,7.7579021
			s-2.4068489-0.8892212-5.6653862-1.7069206C48.9123535,28.8408947,51.6107368,27.3349056,53.2340546,26.7963924z"/>
		<circle class="st5" cx="34.9359818" cy="27.1975517" r="1.0390502"/>
		<circle class="st0" cx="35.3494034" cy="26.7181168" r="0.2420856"/>
	</g>
</g>
</svg>
